<svg xmlns="http://www.w3.org/2000/svg" xmlns:xlink="http://www.w3.org/1999/xlink" id="Layer_1" data-name="Layer 1" viewBox="0 0 1024 326.81" width="1024" height="1024">
  <defs>
    <style>
      .cls-1, .cls-2 {
        fill: #0f264d;
      }

      .cls-2 {
        filter: url(#drop-shadow-1);
      }

      .cls-3 {
        fill: #ff5f05;
      }

      .cls-4 {
        fill: #bab1af;
      }
    </style>
    <filter id="drop-shadow-1" x="0" y="0" width="1024" height="326.81" filterUnits="userSpaceOnUse">
      <feOffset dx="0" dy="10"/>
      <feGaussianBlur result="blur" stdDeviation="3"/>
      <feFlood flood-color="#000" flood-opacity=".75"/>
      <feComposite in2="blur" operator="in"/>
      <feComposite in="SourceGraphic"/>
    </filter>
  </defs>
  <path class="cls-2" d="M11.51,297.31c-.17-1.27-1.57-3.1-1.79-4.75-.94-6.99,5.26-23.42,7.52-31.02C42.49,176.88,71.42,92.93,98.67,8.97c3.78-5.9,8.6-7.18,15.3-7.7,46.98-3.66,98.61,2.84,146.08,0,6.44,2.72,18.31-.65,23.79,1.21,3.8,1.29,2.41,10.55,7.68,5.35,4.24-4.18,2.51-5.7,10.5-6.5,19.31-1.94,57.4-1.57,77.02-.05,1.86.14,7.62,1.06,8.83,1.94.25.18,2.64,5.29,2.64,5.59v17c0,1.1,2.44,1.43,3.45,1.55,10.22,1.2,22.92-.88,33.41-.19,4.09-15.22-.68-24.52,18.6-25.9,21.55-1.55,55.65-1.27,77.06,1.04,5.93.64,3.98,3.08,6.9,5.07,6.33,4.31,4.56-5.5,10.03-5.11,63.24.84,126.99-1.47,189.92,1.17,2.35,1.21,6.72,8.86,8.85,4.59,1.3-2.61,1.03-5.89,5.23-5.76,31.36-.11,62.73.29,94.09.09,18.76-.12,38.08-2.19,57.01-1.09,6.01.35,12.8.46,16.89,5.11,2.43,2.76,5.79,12.39,7.55,13.45s8.78,1.12,11.82,2.18c7.51,2.61,9,8.46,11.95,15.05,20.78,70.52,48,140.59,67.73,211.27.97,3.46,3.56,10.46,3.53,13.53-.04,4.15-3,4.87-4.03,7.47-9.84,3.84-14.52.8-11.79,13.33.26,1.17,1.75,1.55,1.79,1.67,1.46,4.22-2.24,9.85-3,13-20.21,9.07-42.91,5.52-64.54,5.96-30.92.63-61.95.7-93,1-11.17.11-22.64,1.9-34,1.08-9.9-.71-12.77-3.25-19.1-10.39-.74-.83-.53-3.01-1.86-3.64-3.17-1.52-2.44,2.97-4.04,4.95-.41.51-9.12,6.82-9.88,7.12-6.89,2.73-17.56-.65-25.04,1.96-61.38-3.69-128.3,4.8-189.03-.05-6.76-.54-11.26-2.14-16.44-6.56-1.57-1.34-2.54-4.18-4.57-5.43l-9.09,8.9c-2.05,1.17-8.25,1.95-10.86,2.14-21.76,1.56-61.63,2.01-83.03-.05-4.24-.41-11.31-2.26-14.51-4.99-2.24-1.91-4.19-5.89-6.46-8.04-.72-21.86,1.63-43.99,2.46-65.96,0-.13.96-1.13,1.04-2.42.1-1.64.49-9.58-1.54-9.58h-37c-3.38,0-4.68,11.08-4.5,14-3.77,16.9-2.85,35.11-6,52-.53,2.84-1.56,7.31-2.53,9.97-6.53,17.89-21.8,13.3-37.01,13.99-20.54.92-49.87,3.32-69.87.96-1.61-.19-5.85-1.5-7.24-2.28-2.7-1.53-6.72-9.43-8.83-9.7-3.82-.49-1.93,1.85-3.46,3.6-3.71,4.25-9.95,8.11-15.53,8.51-55.88,4.01-115.75-4.3-172.07-1-12.79-1.98-26.56.05-38.46-6.04v-.03ZM109.51,32.31c-14.79,45.05-28.02,91.34-41,137-.59,2.06-1.44,3.94-2,6-.16.57.16,1.44,0,2-.07.25-1.34,1.28-1.75,2.71-.89,3.1-2.36,7.16-2.25,10.29l-25,82c24.26-.94,49.1,2.15,73.01-2,.86-3.49-3.08-1.04-4.57-2.97-1.17-7.68,8.69-2.37,9.56-3.02,1.4-1.05,7.71-29.49,8.75-33.79.44-1.8-.07-3.95.26-5.22.03-.12,1.41-.57,1.73-1.73,2.65-9.6.75-8.09-8.73-8.27.16-.5-.28-1.73.02-1.96,1.25-.95,9.91,1.3,11.52-1,1.98-2.83,2.19-18.57,5.46-20.6.66-.41,13.57-.53,15.54-.49,4.51.1,8.6,2.32,13.45.04l-18.99,80h77c2.08-10.67,3.05-21.78,5.07-32.43,11.01-58.12,22.59-116.61,32.97-175.04l-.04-3.52c-2.26.14-2.84,1.69-5.44,2.05-8.13,1.12-20.27-.32-28.56-1.06v-8c2.26-.76,7.6-4.35,9.26-5.96,1.77-1.72,1.56-5.33,4.74-5.03,2.56,4.17-11.45,11.77-7.02,14.52l28.09,1.05,6.94-37.58-109.54-.04c-1.96.36-4.65.46-6.46,1.04l-37.34-1.05c-.63.15-4.09,10.33-4.66,12.05h-.02ZM421.51,48.31c-1.86.61-.87,10.88-.96,13.54s-1.22,4.89-1.04,7.46h25v.99c-1.57-.62-3.76,1.01-4.5,1.01h-20.5c-.2,0,.3,3.71,0,4-.2.19-5.22,1-5.5,1h-22.5l2-28h-26c-.04-4.78.5-9.65,1.12-14.38.28-2.15,4.04-13.62.38-13.62h-61c-.42,0-1.11,1.12-1.29,1.71-.62,8.45-3.73,16.74-5.11,24.89-12.4,72.91-22.08,146.55-33.35,219.65-.44,2.87-3.37,4.97.76,5.81l74.38-1.17c3.96-25.91,5.01-52.22,8.19-78.31.26-2.12,1.74-4.14,1.92-5.58.12-.97-.12-2.03,0-3,1.04-8.31,1.45-16.76,3-25h-25v-4c1.81-.19.01,1.81,2.43,2.08,3.36.38,6.36-.91,9.07-.88,2.95.03,12.18,2.73,13.36-.86.38-1.16-.08-4.34.14-4.34h15c-2.29,10.79-3.11,21.99-3,33h57l2-25h-14c-1.59-4.62.13-8.33,0-13h-35.5c-.96,0-4.13,3.02-3.49-.99l40.99-1v13c.46.46,12.16-.21,12.9-1.11.66-.8-.3-4.48.1-4.91.45-.47,10.99.36,13.01,0l-5.05,120.54,76.05-.54v-44c-4.83-1.68-16.28.36-19.5-3.02-1.77-1.86-.94-4.75-5.51-5.49-.54-2.48,3.17-1.6,4.42-1.4,5.99.94,13.46,4.82,19.64,4.49,2.3-1.69.19-32.81.99-38.12-.25-40.43.08-81.7-.05-122.46v-5c-.03-6.99.06-14.01,0-21-.03-2.99.12-6.02,0-9-.01-.33,0-.67,0-1-.03-1.33.04-2.68,0-4h-63.01c-.47.19-.84.52-1,1-.21.62.05,2.09,0,3-.02.33,0,.67,0,1,0,.66.05,1.34,0,2-.27,3.57-.64,6.86-.99,10.51-.25,2.6.59,7.68,0,9.49-6.33,1.25-20.82-1.69-26,0h0ZM608.51,20.31c-18.98-.22-38.02.17-57.01,0l2.05,86.96c4.2,1.98,30.78,4.93,31.95,6.05,1.4,1.33-.11,1.88-1.52,2.02-4.29.44-9.71-2.33-14.09-2.93-5.02-.69-10.38.26-15.39-1.11l4,157,38.45,4.05,160.55-.04-10.94-71.57c-.92-.65-15.04-.82-16.45-.32-2.1.75-1.09,3.77-2.17,3.95-3.56.6-11.18-5.45-16.45-3.08v13c4.58-3.62,12.13-.74,16.34-2.16,3.06-1.03,2.34-6.43,2.71-6.78.23-.22,5.1-.29,5.79.12,1.08.64,4.68,14.29,4.79,16.49.33,6.29-.49,12.02.16,19.14.38,4.19-5.02,4.12-6.36,2.22-.65-.92.74-4.3.55-6.41-.16-1.77-2.04-9.58-2.65-11.45-3.2-9.94-12.52-7.92-21.22-8.06-2.92,6.76,4.93,31.13-2.09,35.47-1.41.87-4.6-1.25-6.59-1.5s-7.74.3-8.31-.19c-.67-.57-1.66-12.36-2.11-14.89-.32-1.84.18-4.07-1.25-5.76-.46-.4-9.37-2.12-10.75-2.24v-8c3.97,1.32,8.03-.27,11.98-1.01,2.22,5.3.51,27.27,5,29.52,5.8,2.91,11.73.31,12.74-6.28.66-4.25-.99-23.93-1.78-28.68-.54-3.24-3.21-3.09-1.18-8.29.26-.67,4.22-5.26.73-5.26h-41c-4.13,0,2.61,18.38,2.49,20.99-2.55.45-1.8-.4-2.45-2-1.3-3.21-3.39-16.79-4.49-17.56-2.56-1.79-11.66,1.04-15.05-1.44-.24,3.14-.08,18.11-1.14,19.86-.95,1.57-9.67,1.08-11.86,1.14.07,3.64,4.77,1.93,1.99,6.99-1.24-.14-2.7,0-4,0-6.82-.02-4.2,1.52-5,2-.49.29-2.74-.67-3.06.54-.35,1.31.11,4.64.06,6.46-.11,4.63-.1,9.37,0,14-1,.02-2-.02-3,0,2.26-10.24.41-21.49,1-32h22c-.19-2.64,2.85-19-.5-19h-14.5l-6-80-14,1.01c.2-1.18-.39-4.49.05-4.95,1.31-1.39,11.51-.65,13.94-.06-1.45-4.36-1.5-8.55-2-12.99-1.05-9.44-1.35-18.66-2-28,16.46-.25,33.25.06,49.46.04l45.54-.05c-3.13-5-4.23-14.75,3-15.99.91-.16,2.04.11,3,0-.24.38.41,2.45-.08,2.86-.82.7-4.5-.28-4.93.13-.47.45.36,10.99,0,13.01h12c.74-.64-3.62-16.66-4-19.01-1.85-11.58-2.24-23.53-5-35h-100.5c-2.03,0-6.21-.96-9.5-1l.05.04ZM793.51,210.31c.24,1.59-.16,3.5.13,5.34,2.95,18.98,6.64,37.95,10.87,56.66h90.5c4.23,0-.87-7.63.51-9,7.08-1.18,2.64,3.22,3.07,7.91,1.42.52,2.88.95,4.41,1.09,13.41,1.26,33.22.5,47.05.04,7.15-.24,15.12-1.54,22.48-1.52,2.31-2.07-.45-.74-1.19-2.88-2.66-7.73-3.99-16.22-7.83-23.64h24l-55.18-180.32c-1.34-3.24-4.57-.46-7.32-.59-3.65-.17-15.84-1.22-17.15-4.39-3.3-7.98.59-7.1,3.11-10.71,8.67-12.38-3.19-6.08-6.33-8.12-.91-.59-4.01-17.17-5.13-19.87h-142c9.17,44.09,15.54,88.83,24.49,133.01,1.74,6.1,14.52,2.49,15.49-2.54.6-3.09-.38-7.22.03-10.48,5.32,3.01,3.25,14.37-.58,16.93-1.95,1.31-4.07.58-5.69,1.14-.87.3-.73,1.74-1.44,1.91-1.89.45-4.3-.2-6.3.03,2.18,14.42,4.95,28.74,8,42.99.13.6-.12,1.39,0,2,.09.45.55.86,1,1,.27,1.56.88,3.21,1,4h0ZM929.51,57.31c-1.1-4.74-2.08-16.41-7.46-17.06-8.53-1.02-5.23,2.18-6.8,6.31-.77,2.04-4.75,7.14-2.64,9.65,1.35,1.6,14.04.97,16.89,1.1h.01ZM644.51,115.31c1.58,19.34,3.18,38.68,5,58,.06.62-.23,1.3.1,1.9.6.37,1.45-.05,1.9.1,1.72.57,2.44.9,4.43,1.04,31.48,2.32,65.8-1.82,97.57-.04,1.82,1.15,3.99,1.45,5.78,2.72s3.16,5.23,5.22,3.78c-2.37-18.28-5.05-36.6-8.28-54.74-.34-1.93-1.55-3.79-1.73-4.76-.79-4.33-1.23-8.66-2-13-.87-4.93-1.1-10.57-2.31-15.21-1.71-6.56-3.08-.45-5.16,1.24-11.25,9.14-77.63,3.45-95.76,6.24-7.21,1.11-6.21,3.35-5.81,10.31.08,1.31,1.02,2.23,1.04,2.42h.01ZM633.51,223.3c-1.49-3.32-6.16-1.66-8.99-1.98-.42.32-1,1.98,1.26,1.72,2.89-.34,4.92.23,7.74.27h-.01Z"/>
  <path class="cls-3" d="M353.51,187.31c-.18,1.44-1.66,3.47-1.92,5.58-3.18,26.09-4.23,52.39-8.19,78.31l-74.38,1.17c-4.13-.84-1.2-2.94-.76-5.81,11.26-73.1,20.95-146.74,33.35-219.65,1.39-8.15,4.5-16.44,5.11-24.89.17-.59.87-1.71,1.29-1.71h61c3.65,0-.1,11.47-.38,13.62-.62,4.73-1.16,9.6-1.12,14.38h26l-2,28h22.5c.28,0,5.3-.81,5.5-1,.3-.29-.2-4,0-4h20.5c.74,0,2.93-1.63,4.49-1.01v-.99h-24.99c-.18-2.57.96-4.91,1.04-7.46s-.9-12.94.96-13.54c-.41,3.48,1.1,1.39,2.79,1.3,6.93-.38,15.4.54,21.76-.27,1.02-.13,1.12,0,1.45-1.03.59-1.81-.25-6.89,0-9.49.35-3.65.73-6.94.99-10.51,3.06.76,1.37-2.24,2.59-3.09,3.81-2.68,12.05.19,15.96.13,2.43-.04,4.56-1.08,6.91-1.08,3.17,0,18.09-.83,18.55,1.57.27,1.42-5.7,7,.99,9.47,3.27,1.21,8.98,1.96,12.53,2.07,1.79.06,3.86.64,3.47-2.07.54.26,2.17-.18,3,0,.06,6.99-.03,14.01,0,21-3.41.2-7.04-.37-10.42.1-1.27.18-3.91.32-3.61,2.4.88,6,9.97,2.67,14.03,2.5.12,40.76-.21,82.03.05,122.46-.8,5.3,1.31,36.43-.99,38.12-6.18.33-13.65-3.54-19.64-4.49-1.24-.2-4.95-1.08-4.42,1.4,4.57.74,3.73,3.63,5.51,5.49,3.22,3.38,14.67,1.34,19.5,3.02v44l-76.05.54,5.05-120.54c-2.02.36-12.56-.48-13.01,0-.4.43.56,4.1-.1,4.91-.74.9-12.44,1.57-12.9,1.11v-13l-40.99,1c-.64,4.01,2.53.99,3.49.99h35.5c.13,4.67-1.59,8.38,0,13h14l-2,25h-57c-.11-11.01.71-22.21,3-33h-15c-.22,0,.24,3.18-.14,4.34-1.18,3.59-10.42.88-13.36.86-2.71-.02-5.71,1.26-9.07.88-2.41-.27-.61-2.28-2.42-2.08v4h24.99c-1.55,8.24-1.96,16.69-3,25-19.06-2.21-17.89,7.24,0,3h.01ZM311.51,30.31c.1-2.65-.07-5.35-.01-8-6.35,3.33-.16,12.21-4.99,16.99,4.51,1.26,9.84,1.38,14.55,1.02,3.07-.24,2.57.49,2.45-3,2.32-.07,4.67,0,7,0l-3,2.99c5.84-1.35,8.16,1.81,7.01,7.32-.16.77-1.84.61-2.02,1.36-.53,2.26.54,6.98,3.5,7.33.03-2.8-.44-17.28-1.53-17.99-.12-.08-1.52,1.07-1.81.79-.22-.54-.26-1.25-.14-1.81.01-.07,1.53-.26.99-.98-.05-.07-1.16.16-1.59-.37-5.11-6.26-6.77-2.78-13.84-3.71-2.25-.29-4.09-2.3-6.56-1.94h-.01ZM447.51,61.31h25v-5h-17c-.23,0,.57,2.86-.49,2.99-2.6-1.3-4.29-4.46-7.5-3.99v6h-.01ZM477.51,61.31v1h19v-1h-19ZM355.51,97.31v-20.5c0-1.66,3.5-4.15-2-3.51-1.01,5.18,0,37.01-1.14,38.86-.85,1.36-7.98,1.19-9.86,1.15.5,3.55,11.32,1.57,11.89.89.48-.57.49-14.25,1.1-14.9.38-.4,9.22.31,11,0,1.62-1.23-.02-1.81-1.48-2-1.77-.23-9.18.34-9.52,0h0ZM468.51,92.3c5.76-.63,23.94-4.14,27.53-7.95,2.36-2.51,1.79-5.6-1.6-4.62-7.44,6.24-20.08,5.36-25.93,12.58h0ZM458.51,95.32c-2.13.62-14.08,2.09-13.98,3.49.05.66,2.15,1.04,2.72,1.81.61.8.11,2.54.26,2.69,2.64,2.5,2.98-2.54,3.17-2.76.99-1.12,7.76-.93,7.83-5.23ZM430.51,108.31c0-2.37,2.03-4.7-1.51-5.06-1.02-.1-12.09,1.59-12.49,2.08-.23.28.13,2.16,0,2.98,0,0,14,0,14,0ZM480.51,140.32c-2.54-.12-5.12.36-7.56.97-1.67.42-2.92-1-2.43,2.02,2.63-.3,10.18,1.34,9.99-2.99ZM323.51,156.31c-2.38-.14-1.76-.33-1.99,1.49-.63,5.02-3.45,16.16,3.99,15.5,1.07-2.75-1.99-1.85-1.99-1.99v-15h-.01ZM328.51,174.3l-1.99-1.99c-.29,2.09-.1,2.28,1.99,1.99ZM300.52,191.3c2.18,2.24,6.24-8.3,5.98-9.99-1.8.25-6.4,9.57-5.98,9.99ZM505.5,188.3c-.49-8.36-12.88-2.12-17.99-4.99.17,1.1-.7,2.78.66,2.98,2.45.37,16.55,2.74,17.32,2.01h.01ZM302.51,221.31c.21-7.42-14.04-2.88-18.83-3.83-2.06,4.26-3.15,9.04-3.16,13.82,1.66.51,2.82-.7,3.99-1,7.21-1.82,16.42-1.68,24-2,.39-7.15.16-6.66-6-7h0ZM476.51,226.31c1.27-7.35-10.66-8.11-16-8.99l7.38,8.06,8.62.93h0Z"/>
  <path class="cls-3" d="M791.51,203.31c-3.04-14.25-5.82-28.58-8-42.99,2-.24,4.41.42,6.3-.03.71-.17.57-1.61,1.44-1.91,1.62-.56,3.74.17,5.69-1.14,3.83-2.56,5.9-13.92.58-16.93-.41,3.26.57,7.39-.03,10.48-.97,5.02-13.76,8.64-15.49,2.54-8.94-44.19-15.32-88.93-24.49-133.01h142c1.12,2.7,4.22,19.28,5.13,19.87,3.14,2.03,15-4.26,6.33,8.12-2.53,3.61-6.41,2.73-3.11,10.71,1.31,3.17,13.5,4.22,17.15,4.39,2.75.13,5.98-2.65,7.32.59l55.18,180.32h-24c3.84,7.42,5.17,15.92,7.83,23.64.73,2.13,3.49.8,1.19,2.88-7.36-.02-15.33,1.29-22.48,1.52-13.83.46-33.64,1.23-47.05-.04-1.53-.14-2.99-.57-4.41-1.09-.43-4.69,4.01-9.09-3.07-7.91-1.37,1.37,3.72,9-.51,9h-90.5c-4.23-18.71-7.92-37.68-10.87-56.66-.29-1.84.11-3.75-.13-5.34,5.01-.35,13.73,1.72,12.04-5.33-.61-2.53-11.69-1.47-14.04-1.67h0ZM785.5,36.31c3.92-3.74-11.68-2.22-11.99-1.99-2.35,1.78,5.87,3.82,6.73,3.84,2.28.06,1.83-2.37,2.36-2.75.37-.27,2.46,1.32,2.9.91h0ZM848.38,40.45c-5.76-3.62.18,8.65.06,11.29-.2,4.45-3.72,6.77-4.92,10.57,7.72-.95,15.21.26,22.99,0-.46-5.39-6.32-4.32-9.42-7.07-3.31-2.94-7.98-14.33-8.71-14.79ZM918.52,73.31l-10-1c.87,6.67,6.23,1.67,9.99,3.99l.02-3h-.01ZM868.51,75.31h-34c.58,5.22,3.03,10.77,3.77,15.81.65,4.49-2.49,5.97,2.41,9.58l22.82,99.6h37l-12.99-54c3.42,1.97,6.67.09,10.44-.05,8.4-.3,16.72.3,25.06,1.06l1.49-2.01-38.51-.95-17.5-69.06v.02ZM829.34,93.48c-1.09-.74-10.92-1.11-9.82,2.82h10.99c-.4-.65-1.03-2.73-1.17-2.82ZM816.51,155.31h19l2,11.01,3.01-.52c-.89-2.74-1.86-11.91-4.22-13.27-1.26-.73-15.61.46-18.32.78-1.51.18-3.05.82-1.48,2.01h0ZM814.52,184.3c-5.15.83-15.45-2.63-17,4,4.24-1.88,6.28,1.97,6.66,2.04,2.76.53,7.01-2.7,10.33-.04v-6h.01ZM834.22,193.62c-3.62-2.88-13.74,1.03-18.71-.31v2.99c3.46-.44,14.4-.75,17.01.5,2.36,1.13,4.78,13.02,6.99,10.5,1.13-1.28-3.27-12.08-5.29-13.68ZM903.51,213.32c-5.57.56-14.08-2.46-19.32-1.05-.78.21-1.17,2.19-1.67,3.03l19.33,2.1,1.66-4.08ZM848.29,216.55c-.54-.76-4.42-1.6-4.77-1.23-.07,5.32-.03,8.13,5.99,6.99.23-.19-1.03-5.49-1.22-5.76h0ZM906.31,223.55c-5.97-3.85.09,9.78,3.19,6.75.9-.87-2.67-6.42-3.19-6.75Z"/>
  <path class="cls-3" d="M151.51,21.31c1.81-.58,4.5-.69,6.46-1.04l109.54.04-6.94,37.58-28.09-1.05c-4.42-2.75,9.58-10.36,7.02-14.52-3.18-.29-2.97,3.31-4.74,5.03-1.66,1.61-6.99,5.2-9.26,5.96-.28.09-3.8.98-4,1-8.45.93-18.38-.68-27,0,0,9.53-5.31,18.38-5,28.01,4.68-1.5,23.37,2.12,26.03.51,1.86-1.12,2.38-6.91,3.12-7.38,1.36-.87,7.66.34,9.86-.14,3.94-3.01-9.58-1.64-9.99-2,1.24-3.93,1.46-7.95,2-11.99,1.65.1,3.36-.15,5,0,8.28.74,20.42,2.18,28.56,1.06,2.59-.36,3.17-1.91,5.44-2.05l.04,3.52c-10.37,58.44-21.96,116.92-32.97,175.04-2.02,10.66-2.98,21.77-5.07,32.43h-77l18.99-80c-4.85,2.28-8.95.06-13.45-.04-1.97-.04-14.88.08-15.54.49-3.27,2.03-3.48,17.76-5.46,20.6-1.61,2.3-10.28.05-11.52,1-.3.23.14,1.46-.02,1.96-.68,2.13-1.66,8.82,0,10.01.45.32,5.24-2.19,6.99,0-.32,1.27.18,3.42-.26,5.22-1.05,4.3-7.36,32.74-8.75,33.79-.87.65-10.73-4.66-9.56,3.02,1.5,1.93,5.43-.52,4.57,2.97-23.91,4.15-48.75,1.07-73.01,2l25-82c.03.98.75,1.43,1,2,.19.45-.45,1.28.64,2.07,3.77,2.75,11.85,1.74,16.37,1.93l-.49,12.01c3.58-.89,4.15-12.08,3.53-14.37-.15-.57-2.19-1.2-3.04-1.64-2.26-1.17-12.27-4.75-12.75-5.24-3.57-3.59,2.98-7.75-1.25-9.76.16-.56-.16-1.43,0-2,3.38.84,1.04-3.82,4-5.51l-2-.49c12.98-45.66,26.21-91.95,41-137l8.99,4c-.96-2.66,2.1-5.79,2.06-7.47,0-.29-4.3-2.12-2.06-4.52,1.02-1.09,24.26.99,29.77-.77,1.37-.44,2.69-2.06,3.24-2.23v-.04ZM131.51,143.31c2.7-.25,15.17.51,15.9-.11.45-4.94,2.98-10.16,2.1-14.89h28c-.26,5.46-2.88,10.42-2,16l12.96-.05c4.08-13.25,4.83-28.02,8.12-41.2.14-.55,3.55-2.15,1.93-5.76-18.03,1.02-11.48-.78-10-14h-24.5c-.36,0-1.55-1.22-2.47-1.04,1.89-4.07,2.81-16.96,5.22-19.7,2.09-2.38,12.36-.79,15.75-1.26,1.05-5.4-4.15-3.12-6.05-4.44-1.63-1.12-3.39-14.74-1.95-17.55-3.32-3.8-5.45,14.35-6.09,14.9-8.12.52-16.36-.34-24.48.06-1.31.06-2.24,1.03-2.42,1.04-2.62.19-13.79-.34-14.95,1.06-4.27,5.16,9.86,6.63,12.95,4.94-.29,1.45.17,3.37-.26,5.21-1.34,5.68-3.6,11.07-4.74,16.79h26c-1.39,3.95.92,15.03-5.01,12.49-.3-1.28,3.47-9.58.51-9.47s-2.92,9.33-4.16,10.03c-6.22,3.47-21.6-1.9-22.33-1.04-.19.23-.36,2.44.57,3.09,2.13,1.49,10.48,1.9,13.42,1.91-3,14.53-8.37,28.68-12,42.99-4.08.38-3.44,8.43-4.01,12l5.52.98c.63-1.95-2.96-1.91-3.35-3.56-.11-.47,1.48-8.02,1.84-9.42h-.02ZM124.51,62.31c-5.34-5.25-15.49.48-21.52-1.98l-.48,1.98h22ZM161.5,144.32c-1.02.16-3.54-.32-3.94.05-.37.34-1.49,8.4-2.05,9.94l2.27-2.17,3.72-7.82ZM101.52,167.31c3.23-1.61,6.9-12.56,4.05-14.56-1.01-.71-13.46-.73-15.61-.49-1.81.21-4.61.9-2.95,3.06l17.49,1c-.7,3.91-3.95,6.59-2.99,10.99h0ZM156.51,159.31l-1.01-4.01-17.99,2.02c-.43,1.01,2.33,1.99,2.5,1.99h16.5ZM86.51,216.32c-4.27.91-8.26-.46-7,4.99,5.5.44,6.43.71,7-4.99ZM183.51,262.32c-1.3-.6-7.85,1.5-6.99,3.48,1.55,3.56,7.94.12,6.99-3.48Z"/>
  <path class="cls-3" d="M608.51,20.31c-.56,3.02,1.53,1.94,3.45,2,22.94.75,43.63.84,66.55,3,.13,0,.94.87,2.4,1.06,9.24,1.2,21.06-1.01,30.6-.06-.46,8.99,5.01,14.65,5.93,20.56.69,4.4-1.24,8.3.07,12.44-7.23,1.24-6.13,10.99-3,15.99l-45.54.05c-16.21.02-33-.3-49.46-.04-.1,0-.64-1.31-1.93-.58-3.7,2.09-.35,10.4-.08,14.09.31,4.31-.29,8.71,0,13.02.19,2.85,2.47,1.04,4.01,1.47.49,4.44.54,8.63,2,12.99-2.43-.6-12.63-1.33-13.94.06-.44.47.14,3.77-.05,4.95l14-1.01,6,80h14.5c3.35,0,.31,16.36.5,19h-22c-.59,10.51,1.26,21.76-1,32-.94.02-2.23-.18-3,0-1.77-1.87-4.65-1.71-6.55-2.95-1.29-.84-3.2-6.07-5.44-4.05-.51.46,3.44,10.08,9,8.99-1.81,5.09,4.99,5.88,8.33,5.04,2.64-.66.7-5.76.67-7.04-.1-4.63-.11-9.37,0-14,6.6-.4,13.58,1.04,19.92-1.09-.29-8.49-.51-6.03-6.33-6.98-.82-.13-1.41-.91-1.59-.93,2.77-5.06-1.92-3.35-1.99-6.99,2.19-.06,10.91.43,11.86-1.14,1.07-1.76.91-16.72,1.14-19.86,3.39,2.48,12.49-.35,15.05,1.44,1.1.77,3.19,14.34,4.49,17.56.65,1.6-.1,2.45,2.45,2,.11-2.62-6.63-20.99-2.49-20.99h41c3.49,0-.47,4.59-.73,5.26-2.03,5.2.65,5.05,1.18,8.29.79,4.75,2.43,24.44,1.78,28.68-1.02,6.59-6.94,9.19-12.74,6.28-4.5-2.25-2.78-24.22-5-29.52-3.95.73-8.01,2.32-11.97,1.01v8c-2.94-.25-6.05.17-9,0l2.99,1-3.01,1c1.01,1.41.82,4.74,1.95,5.56,2.16,1.57,15.42-.25,19.06.44.45,2.53,1.44,14.32,2.11,14.89.57.49,6.43-.05,8.31.19,1.99.25,5.18,2.37,6.59,1.5,7.02-4.34-.83-28.71,2.09-35.47,8.71.15,18.02-1.87,21.22,8.06.6,1.87,2.48,9.68,2.65,11.45.2,2.11-1.19,5.49-.55,6.41,1.34,1.9,6.74,1.97,6.36-2.22-.65-7.13.17-12.85-.16-19.14-.12-2.19-3.72-15.85-4.79-16.49-.69-.41-5.56-.34-5.79-.12-.37.36.35,5.75-2.71,6.78-4.21,1.42-11.76-1.45-16.33,2.16v-13c5.26-2.37,12.88,3.68,16.44,3.08,1.08-.18.07-3.2,2.17-3.95,1.41-.5,15.52-.33,16.45.32l10.94,71.57-160.55.04-38.45-4.05-4-157c5.01,1.36,10.37.42,15.39,1.11,4.38.6,9.8,3.37,14.09,2.93,1.41-.14,2.92-.69,1.52-2.02-1.18-1.12-27.76-4.08-31.95-6.05l-2.05-86.96c18.98.17,38.02-.22,57.01,0l-.05-.03ZM662.51,35.31c.05.23,2.56,3.09,3.46,3.08,1.55-.02,7.29-1.58,9.54-2.08,1.23-.28,3.41.37,3.87-1.58.11-.46-1.02-4.98-1.36-5.44-1.64-2.22-17.64-2.71-15.52,6.02h.01ZM632.51,54.31c-5.04,4-12.87.93-18.5,2-2.54.48-2.65,1.78-2.5,4-6.84-.01-13.71,0-20.56.04-1.65.01-4.21-1.09-4.44-1.04-3.2.9-1.26-2.75-2.55-3.07-.89-.22-15.05-.21-15.84,0-1.09.3-.76,3.16-1.61,4.07-6.25-1.13-1.82,4.14,2.95,3.05-.94,4.1,1.2,12.25.66,15.5-.34,2.06-3.79,2.31-5.13,3.43-3.56,2.95-6.1,10.43-5.47,15.01,3.43.61,2.67-4.76,3.5-6.99,1.52-4.07,3.45-6.5,8.08-6.93s.74,3.66,4.05,4.8c4.3,1.47,18.82-.43,24.86.14,2.54.24,12.34,3.44,13.54,2.57,2.41-1.75-1.14-25.17-1.03-29.58,7.51-.54,15.78,1.2,23-1,1.45,2.65,4.27,2.36,6.99,3-.34-8.26-7.46-8.47-10.51-16.01-1.02-2.53.67-5.52-3.46-3.5,1.28,3.63,2.33,7.02,3.98,10.52h0ZM675.51,74.3l-1.49-13.99c-2.79,2.87-1.39,8.16-.53,11.56.42,1.67-1,2.92,2.02,2.43ZM664.51,61.31l-5.99,1.51c5.59.33,3.89,1.37,4,6.49,3.82.8,1.35-5.8,1.99-8ZM619.5,69.32h-1.99v2.99h1.99v-2.99ZM593.74,211.09c-2.02-1.72.05-7.83-8.23-5.78.81,10.95-.1,15.2-11.99,12.01-1.76,4.56,2.45,6.81,2.98,9.51,1.07,5.47-2.62,18.32,6.01,17.48-1.62-5.96-2.3-25.48,5.53-26.97,2.28-.44,11.65-.44,13.01.95,2.82,2.88,2.7,13.96,3.52,18.5.32,1.77-1.1,2.99,1.95,2.52-1.49-3.92-.73-24.23-2.09-25.9-.58-.71-9.3-1.15-10.67-2.32h-.02Z"/>
  <path class="cls-3" d="M608.51,20.31c3.29.04,7.47,1,9.5,1h100.5c2.76,11.47,3.15,23.42,5,35,.68,2.62-2.87,2.8-3,3-.96.11-2.09-.16-3,0-1.31-4.14.62-8.04-.07-12.44-.92-5.91-6.39-11.57-5.93-20.56,0-.11,1.44-.77.99-2-.69-.66-12.59,1.1-14.49,1.08-5.47-.07-11.43-1.95-17.5-1.08l-1,1h-1c-22.91-2.16-43.61-2.25-66.55-3-1.93-.06-4.01,1.02-3.45-2Z"/>
  <path class="cls-3" d="M449.51,21.31h63.01c.03,1.32-.04,2.67,0,4l-.98.5.98.5c.12,2.98-.03,6.01,0,9-.83-.18-2.46.26-3,0-.39-.19-.76-1.58-1.22-1.74-2.22-.77-8.52-.37-11.33-.26-1.92.08-4.01-1.03-3.46,2-6.69-2.48-.72-8.05-.99-9.47-.45-2.4-15.38-1.57-18.55-1.57-2.36,0-4.48,1.04-6.91,1.08-3.91.06-12.15-2.81-15.96-.13-1.22.86.47,3.86-2.59,3.09.05-.66,0-1.34,0-2l.98-.5-.98-.5c.05-.91-.21-2.38,0-3l1-1h0ZM509.51,24.31h-15c.12.81-.2,2.79,0,3,.53.53,12.98-.74,15,0v-3Z"/>
  <path class="cls-3" d="M929.51,57.31c-2.85-.12-15.54.5-16.89-1.1-2.11-2.51,1.87-7.6,2.64-9.65,1.56-4.14-1.74-7.34,6.8-6.31,5.38.64,6.36,12.32,7.46,17.06h-.01Z"/>
  <path class="cls-3" d="M151.51,21.31c-.55.18-1.87,1.8-3.24,2.23-5.51,1.76-28.75-.32-29.77.77-2.24,2.4,2.05,4.24,2.06,4.52.04,1.68-3.02,4.81-2.06,7.47l-8.99-4c.56-1.72,4.03-11.9,4.66-12.05l37.34,1.05h0Z"/>
  <path class="cls-3" d="M723.51,56.31c.37,2.34,4.73,18.36,4,18.99h-12c.36-2-.47-12.55,0-13,.43-.41,4.11.57,4.93-.13.49-.42-.16-2.49.08-2.86.13-.2,3.68-.38,3-3h-.01Z"/>
  <path class="cls-3" d="M636.51,228.31c.18.02.77.79,1.59.93,5.81.95,6.04-1.51,6.33,6.98-6.34,2.13-13.32.69-19.92,1.09.04-1.82-.41-5.15-.06-6.46.32-1.21,2.57-.25,3.06-.54,2.65-.26,5.74,1.23,5-2,1.3,0,2.76-.14,4,0h0Z"/>
  <path class="cls-3" d="M680.51,228.31c1.38.12,10.29,1.84,10.75,2.24,1.43,1.69.92,3.92,1.25,5.76-3.64-.69-16.9,1.13-19.06-.44-1.13-.82-.94-4.14-1.95-5.56l3.01-1-2.99-1c2.95.16,6.06-.26,8.99,0h0Z"/>
  <path class="cls-3" d="M66.51,177.31c4.23,2.01-2.32,6.17,1.25,9.76.49.49,10.5,4.07,12.75,5.24h-17c-.25-.57-.97-1.02-1-2-.1-3.13,1.36-7.2,2.25-10.29.41-1.43,1.68-2.46,1.75-2.71Z"/>
  <path class="cls-3" d="M619.51,75.31c.65,9.34.95,18.56,2,28-1.53-.43-3.82,1.38-4.01-1.47-.29-4.3.31-8.71,0-13.02-.27-3.69-3.61-12,.08-14.09,1.29-.73,1.83.58,1.93.58Z"/>
  <path class="cls-3" d="M117.51,215.31c9.48.18,11.39-1.32,8.73,8.27-.32,1.16-1.7,1.61-1.73,1.73-1.75-2.18-6.54.33-6.99,0-1.67-1.19-.69-7.87,0-10.01h0Z"/>
  <path class="cls-3" d="M791.51,203.31c2.35.2,13.43-.85,14.04,1.67,1.69,7.04-7.02,4.97-12.04,5.33-.12-.79-.73-2.44-1-4-.08-.46-.53-.88-1-1-.12-.61.13-1.4,0-2Z"/>
  <path class="cls-3" d="M512.51,56.31v5c-4.06.17-13.15,3.5-14.03-2.5-.31-2.08,2.34-2.22,3.61-2.4,3.38-.47,7.01.1,10.42-.1h0Z"/>
  <path class="cls-3" d="M621.51,251.31c1-.02,2,.02,3,0,.03,1.28,1.98,6.38-.67,7.04-3.34.84-10.14.05-8.33-5.04.22-.04,2.24-1.82,3-2s2.06.02,3,0Z"/>
  <path class="cls-3" d="M353.51,184.31c-.12.97.12,2.03,0,3-17.89,4.24-19.06-5.21,0-3Z"/>
  <path class="cls-3" d="M225.51,53.31v8c-1.64-.15-3.35.1-5,0,.31-2.34,1.06-4.61,1-7,.2-.02,3.72-.91,4-1Z"/>
  <path class="cls-3" d="M447.51,48.31c-.33,1.01-.43.9-1.45,1.03-6.36.81-14.83-.11-21.76.27-1.69.09-3.2,2.17-2.79-1.3,5.18-1.69,19.67,1.25,26,0h0Z"/>
  <path class="cls-4" d="M633.51,223.3c-2.82-.04-4.84-.61-7.74-.27-2.26.27-1.68-1.39-1.26-1.72,2.83.32,7.51-1.34,8.99,1.98h.01Z"/>
  <path class="cls-4" d="M632.51,228.31c.74,3.23-2.35,1.74-5,2,.8-.48-1.82-2.02,5-2Z"/>
  <path class="cls-3" d="M68.51,169.31l2,.49c-2.95,1.68-.62,6.34-4,5.51.56-2.06,1.41-3.94,2-6Z"/>
  <path class="cls-4" d="M649.51,173.31c2.13-.24,2.24-.13,2,2-.44-.15-1.3.27-1.9-.1-.33-.61-.04-1.28-.1-1.9Z"/>
  <path class="cls-4" d="M792.51,206.31c-.45-.14-.91-.55-1-1,.47.12.92.54,1,1Z"/>
  <path class="cls-4" d="M448.51,22.31c.16-.48.53-.81,1-1l-1,1Z"/>
  <path class="cls-3" d="M512.51,26.31l-.98-.5.98-.5c0,.33-.01.67,0,1Z"/>
  <path class="cls-4" d="M448.51,26.31c0-.33-.02-.67,0-1l.98.5-.98.5Z"/>
  <path class="cls-3" d="M302.51,221.31c6.16.34,6.39-.15,6,7-7.59.32-16.8.18-24,2-1.94-9.03,11.77-9.35,18-9Z"/>
  <path class="cls-1" d="M355.51,97.31c.34.34,7.75-.23,9.52,0,1.46.19,3.1.76,1.48,2-1.77.31-10.62-.4-11,0-.62.65-.62,14.33-1.1,14.9-.58.68-11.39,2.66-11.89-.89,1.88.04,9.01.21,9.86-1.15,1.15-1.85.14-33.69,1.14-38.86,5.5-.65,2,1.84,2,3.51v20.5h0Z"/>
  <path class="cls-1" d="M302.51,221.31c-6.23-.35-19.94-.03-18,9-1.18.3-2.34,1.51-3.99,1,0-4.78,1.1-9.56,3.16-13.82,4.79.95,19.04-3.59,18.83,3.83h0Z"/>
  <path class="cls-3" d="M447.51,61.31v-6c3.21-.47,4.91,2.69,7.51,3.99,1.06-.14.26-2.99.49-2.99h17v5h-25Z"/>
  <path class="cls-1" d="M468.51,92.3c5.86-7.21,18.49-6.34,25.93-12.58,3.39-.98,3.96,2.11,1.6,4.62-3.59,3.82-21.77,7.32-27.53,7.95h0Z"/>
  <path class="cls-3" d="M311.51,30.31c2.47-.35,4.31,1.65,6.56,1.94,7.07.93,8.73-2.55,13.84,3.71.43.53,1.54.3,1.59.37.54.72-.98.91-.99.98h-2c-2.33,0-4.68-.07-7,0-4.8.15-7.89.8-13-1-.04-2.06.92-3.94,1-6Z"/>
  <path class="cls-1" d="M311.51,30.31c-.08,2.05-1.04,3.93-1,6,5.12,1.8,8.2,1.16,13,1,.12,3.49.62,2.76-2.45,3-4.7.37-10.04.24-14.55-1.02,4.83-4.78-1.36-13.66,4.99-16.99-.06,2.65.11,5.35.01,8h0Z"/>
  <path class="cls-1" d="M476.51,226.31l-8.62-.93-7.38-8.06c5.34.88,17.27,1.64,16,8.99h0Z"/>
  <path class="cls-3" d="M505.5,188.3c-.78.73-14.87-1.64-17.32-2.01-1.37-.2-.49-1.88-.66-2.98,5.11,2.87,17.5-3.37,17.99,4.99h-.01Z"/>
  <path class="cls-3" d="M430.51,108.31h-14c.13-.82-.23-2.69,0-2.98.4-.49,11.47-2.19,12.49-2.08,3.55.36,1.5,2.69,1.51,5.06Z"/>
  <path class="cls-1" d="M493.51,35.31c-.56-3.03,1.53-1.93,3.46-2,2.81-.11,9.11-.51,11.33.26.46.16.82,1.55,1.22,1.74.38,2.72-1.68,2.13-3.47,2.07-3.54-.12-9.25-.86-12.53-2.07h-.01Z"/>
  <path class="cls-1" d="M458.51,95.32c-.07,4.3-6.84,4.11-7.83,5.23-.19.22-.52,5.25-3.17,2.76-.16-.15.35-1.88-.26-2.69s-2.68-1.15-2.72-1.81c-.1-1.4,11.85-2.87,13.98-3.49Z"/>
  <path class="cls-1" d="M332.51,37.31c-.12.56-.08,1.27.14,1.81.29.28,1.7-.87,1.81-.79,1.09.72,1.56,15.19,1.53,17.99-2.96-.36-4.03-5.07-3.5-7.33.18-.75,1.86-.59,2.02-1.36,1.15-5.52-1.17-8.67-7.01-7.32l3-2.99h2.01Z"/>
  <path class="cls-1" d="M323.51,156.31v15c0,.14,3.06-.76,1.99,1.99-7.43.66-4.62-10.48-3.99-15.5.23-1.82-.39-1.63,1.99-1.49h.01Z"/>
  <path class="cls-1" d="M480.51,140.32c.19,4.33-7.36,2.69-9.99,2.99-.49-3.02.75-1.6,2.43-2.02,2.44-.61,5.03-1.09,7.56-.97Z"/>
  <path class="cls-1" d="M300.52,191.3c-.41-.42,4.19-9.75,5.98-9.99.26,1.69-3.8,12.24-5.98,9.99Z"/>
  <rect class="cls-1" x="477.51" y="61.31" width="19" height="1"/>
  <path class="cls-1" d="M328.51,174.3c-2.09.29-2.28.1-1.99-1.99l1.99,1.99Z"/>
  <path class="cls-1" d="M868.51,75.31l17.5,69.06,38.51.95-1.49,2.01c-8.34-.76-16.66-1.36-25.06-1.06-3.77.14-7.02,2.02-10.44.05l12.99,54h-37l-22.82-99.6c-4.9-3.61-1.76-5.09-2.41-9.58-.74-5.05-3.19-10.59-3.77-15.81h34v-.02Z"/>
  <path class="cls-1" d="M848.38,40.45c.73.46,5.4,11.85,8.71,14.79,3.1,2.75,8.96,1.67,9.42,7.07-7.78.26-15.27-.95-22.99,0,1.2-3.8,4.73-6.12,4.92-10.57.12-2.64-5.82-14.91-.06-11.29Z"/>
  <path class="cls-1" d="M834.22,193.62c2.02,1.61,6.41,12.4,5.29,13.68-2.22,2.52-4.63-9.37-6.99-10.5-2.6-1.25-13.55-.94-17-.5v-2.99c4.96,1.34,15.09-2.58,18.7.31h0Z"/>
  <path class="cls-3" d="M814.52,184.3v6c-3.33-2.66-7.58.56-10.34.04-.38-.07-2.42-3.92-6.66-2.04,1.55-6.63,11.85-3.17,17-4Z"/>
  <path class="cls-1" d="M816.51,155.31c-1.57-1.19-.03-1.83,1.48-2.01,2.7-.32,17.05-1.51,18.32-.78,2.36,1.36,3.33,10.54,4.22,13.27l-3.01.52-2-11.01h-19.01Z"/>
  <path class="cls-1" d="M903.51,213.32l-1.66,4.08-19.33-2.1c.5-.85.89-2.82,1.67-3.03,5.24-1.42,13.76,1.61,19.32,1.05Z"/>
  <path class="cls-1" d="M785.5,36.31c-.43.41-2.53-1.17-2.9-.91-.54.38-.08,2.82-2.36,2.75-.86-.02-9.08-2.06-6.73-3.84.31-.23,15.91-1.75,11.99,1.99h0Z"/>
  <path class="cls-1" d="M848.29,216.55c.19.26,1.44,5.57,1.22,5.76-6.02,1.14-6.06-1.67-5.99-6.99.35-.37,4.24.47,4.77,1.23h0Z"/>
  <path class="cls-3" d="M829.34,93.48c.14.1.77,2.18,1.17,2.82h-10.99c-1.1-3.93,8.73-3.56,9.82-2.82Z"/>
  <path class="cls-1" d="M918.52,73.31l-.02,3c-3.76-2.32-9.11,2.67-9.99-3.99l10,1h.01Z"/>
  <path class="cls-1" d="M906.31,223.55c.52.33,4.09,5.88,3.19,6.75-3.11,3.02-9.16-10.6-3.19-6.75Z"/>
  <path class="cls-1" d="M141.51,55.31c.18-.01,1.11-.98,2.42-1.04,8.12-.4,16.37.46,24.48-.06.64-.55,2.77-18.7,6.09-14.9-1.44,2.81.32,16.43,1.95,17.55,1.91,1.32,7.1-.96,6.05,4.44-3.39.47-13.66-1.12-15.75,1.26-2.41,2.74-3.33,15.63-5.22,19.7.93-.17,2.12,1.04,2.47,1.04h24.5c-1.47,13.22-8.02,15.02,10,14,1.62,3.61-1.79,5.2-1.93,5.76-3.29,13.18-4.04,27.96-8.12,41.2l-12.96.05c-.88-5.59,1.75-10.54,2-16h-28c.87,4.74-1.65,9.96-2.1,14.89-.72.61-13.19-.14-15.9.11-.35,1.4-1.95,8.95-1.84,9.42.39,1.65,3.98,1.61,3.35,3.56l-5.52-.98c.57-3.57-.07-11.62,4.01-12,3.63-14.32,8.99-28.46,12-42.99-2.93-.02-11.29-.43-13.42-1.91-.93-.65-.77-2.86-.57-3.09.73-.86,16.1,4.52,22.33,1.04,1.25-.7,1.3-9.91,4.16-10.03s-.81,8.19-.51,9.47c5.94,2.54,3.62-8.53,5.01-12.49h-26c1.14-5.72,3.4-11.11,4.74-16.79.43-1.84-.03-3.76.26-5.21s2.16-3.95,2-6h.02Z"/>
  <path class="cls-1" d="M221.51,54.31c.06,2.39-.69,4.66-1,7-.54,4.05-.75,8.07-2,11.99.42.36,13.93-1.01,9.99,2-2.2.48-8.5-.73-9.86.14-.73.47-1.26,6.25-3.12,7.38-2.65,1.61-21.34-2.01-26.03-.51-.31-9.62,5.01-18.48,5-28.01,8.63-.67,18.56.93,27,0h.02Z"/>
  <path class="cls-1" d="M80.51,192.31c.84.44,2.88,1.07,3.04,1.64.62,2.29.05,13.48-3.53,14.37l.49-12.01c-4.51-.19-12.6.82-16.37-1.93-1.08-.79-.44-1.62-.64-2.07h17.01Z"/>
  <path class="cls-1" d="M101.52,167.31c-.96-4.4,2.29-7.08,2.99-10.99l-17.49-1c-1.67-2.15,1.14-2.85,2.95-3.06,2.15-.25,14.6-.22,15.61.49,2.85,2-.82,12.95-4.05,14.56h0Z"/>
  <path class="cls-3" d="M141.51,55.31c.16,2.05-1.72,4.58-2,6-3.09,1.69-17.21.22-12.95-4.94,1.16-1.4,12.33-.87,14.95-1.06Z"/>
  <path class="cls-1" d="M156.51,159.31h-16.5c-.16,0-2.92-.98-2.5-1.99l17.99-2.02,1.01,4.01h0Z"/>
  <path class="cls-1" d="M124.51,62.31h-22l.48-1.98c6.03,2.46,16.18-3.27,21.52,1.98Z"/>
  <path class="cls-1" d="M86.51,216.32c-.57,5.7-1.5,5.43-7,4.99-1.26-5.45,2.73-4.08,7-4.99Z"/>
  <path class="cls-1" d="M161.5,144.32l-3.72,7.82-2.27,2.17c.56-1.54,1.68-9.6,2.05-9.94.4-.37,2.92.11,3.94-.05Z"/>
  <path class="cls-1" d="M183.51,262.32c.96,3.6-5.43,7.04-6.99,3.48-.86-1.98,5.69-4.08,6.99-3.48Z"/>
  <path class="cls-1" d="M611.51,60.31l1,1c-.11,4.41,3.45,27.83,1.03,29.58-1.2.87-11-2.33-13.54-2.57-6.04-.57-20.55,1.33-24.86-.14-3.31-1.13.68-5.24-4.05-4.8s-6.56,2.87-8.08,6.93c-.84,2.23-.07,7.6-3.5,6.99-.63-4.58,1.92-12.07,5.47-15.01,1.35-1.12,4.79-1.37,5.13-3.43.54-3.25-1.61-11.41-.66-15.5-4.77,1.09-9.2-4.18-2.95-3.05,3.55.64,5.25.8,9,1-1.52,4.99-1.08,10.38-1,15.55.02,1.44.99,2.9,1,3.45.02,1.07-1.85,4.06-1,6,6.41-.33,13.11.46,19.49,0,3.05-.22,6.25-1.53,9.51-1.99,1.94-.27,4.48.47,6.36-.14,3.85-1.25.45-17.94.65-21.87-8.16-.29-16.42.39-24.58.05-1.29-.05-2.29-1.04-2.42-1.04,1.71.5,2.82-1.96,3-2,.22-.05,2.78,1.05,4.44,1.04,6.86-.05,13.72-.05,20.56-.04h0Z"/>
  <path class="cls-1" d="M593.74,211.09c1.37,1.17,10.09,1.61,10.67,2.32,1.36,1.67.6,21.98,2.09,25.9-3.05.47-1.63-.75-1.95-2.52-.82-4.54-.7-15.62-3.52-18.5-1.36-1.39-10.72-1.39-13.01-.95-7.83,1.5-7.15,21.02-5.53,26.97-8.63.84-4.94-12.02-6.01-17.48-.53-2.7-4.74-4.95-2.98-9.51,11.89,3.19,12.8-1.06,11.99-12.01,8.28-2.05,6.22,4.06,8.23,5.78h.02Z"/>
  <path class="cls-3" d="M635.51,60.31c-7.22,2.2-15.49.46-23,1l-1-1c-.15-2.23-.04-3.53,2.5-4,5.63-1.06,13.46,2,18.5-2,.78,1.65,2.17,4.47,3,6Z"/>
  <path class="cls-3" d="M675.51,36.31c-1.01-6.15-8.88-1.9-13-1-2.12-8.73,13.88-8.24,15.52-6.02.34.46,1.47,4.98,1.36,5.44-.47,1.96-2.64,1.31-3.87,1.58h-.01Z"/>
  <path class="cls-3" d="M566.51,60.31c.85-.91.53-3.76,1.61-4.07.78-.22,14.94-.22,15.84,0,1.29.32-.65,3.96,2.55,3.07-.18.04-1.29,2.5-3,2-2.65-.1-5.35.14-8,0-3.75-.2-5.45-.36-9-1Z"/>
  <path class="cls-1" d="M632.51,54.31c-1.66-3.5-2.71-6.89-3.98-10.52,4.13-2.02,2.44.97,3.46,3.5,3.05,7.54,10.17,7.75,10.51,16.01-2.73-.64-5.55-.34-6.99-3-.83-1.53-2.22-4.35-3-6h0Z"/>
  <path class="cls-1" d="M680.51,24.31c6.07-.87,12.03,1.01,17.5,1.08,1.91.02,13.8-1.74,14.49-1.08.45,1.23-.99,1.88-.99,2-9.55-.95-21.36,1.26-30.6.06-1.45-.19-2.26-1.05-2.4-1.06h1c.36-.21.78-.97,1-1Z"/>
  <path class="cls-1" d="M615.51,253.31c-5.56,1.09-9.51-8.53-9-8.99,2.24-2.02,4.15,3.2,5.44,4.05,1.9,1.24,4.79,1.08,6.55,2.95-.76.18-2.78,1.96-3,2h.01Z"/>
  <path class="cls-1" d="M675.51,36.31c-2.25.5-7.99,2.07-9.54,2.08-.9,0-3.4-2.86-3.46-3.08,4.12-.9,11.99-5.15,13,1Z"/>
  <path class="cls-1" d="M675.51,74.3c-3.02.49-1.6-.75-2.02-2.43-.86-3.4-2.27-8.69.53-11.56l1.49,13.99Z"/>
  <path class="cls-1" d="M664.51,61.31c-.64,2.19,1.83,8.8-1.99,8-.11-5.11,1.59-6.16-4-6.49l5.99-1.51Z"/>
  <rect class="cls-3" x="617.52" y="69.32" width="1.99" height="2.99"/>
  <path class="cls-4" d="M679.51,25.31l1-1c-.22.03-.64.79-1,1Z"/>
  <path class="cls-3" d="M509.51,24.31v3c-2.02-.74-14.47.53-15,0-.2-.2.12-2.19,0-3h15Z"/>
  <path class="cls-3" d="M583.51,61.31c.13,0,1.13.99,2.42,1.04,8.16.34,16.43-.33,24.58-.05-.2,3.92,3.2,20.61-.65,21.87-1.88.61-4.42-.13-6.36.14-.17-2.25-1.27-3.55-3.53-3.98-6.86-1.31-17.18.91-24.47-.02,0-.55-.98-2.01-1-3.45-.08-5.17-.52-10.56,1-15.55,2.65.14,5.35-.1,8,0h.01Z"/>
  <path class="cls-3" d="M603.51,84.31c-3.26.46-6.46,1.77-9.51,1.99-6.38.47-13.08-.32-19.49,0-.84-1.94,1.02-4.93,1-6,7.29.93,17.61-1.28,24.47.02,2.26.43,3.35,1.72,3.53,3.98h0Z"/>
</svg>