<svg xmlns="http://www.w3.org/2000/svg" id="Layer_1" version="1.1" viewBox="0 0 1056 352">
  <defs>
    <filter id="drop-shadow-1" x="16" y="11.7" width="1024" height="326.3" filterUnits="userSpaceOnUse">
      <feOffset dy="10"/>
      <feGaussianBlur result="blur" stdDeviation="3"/>
      <feFlood flood-color="#000" flood-opacity=".8"/>
      <feComposite in2="blur" operator="in"/>
      <feComposite in="SourceGraphic"/>
    </filter>
    <style>
      .st0{fill:#0f264d}.st2{fill:#ff5f05}.st3{fill:#bab1af}
    </style>
  </defs>
  <path d="M27 309c-.2-1.3-1.6-3.1-1.8-4.8-.9-7 5.3-23.4 7.5-31C58 188.6 86.9 104.6 114.2 20.7c3.8-5.9 8.6-7.2 15.3-7.7 47-3.7 98.6 2.8 146.1 0 6.4 2.7 18.3-.6 23.8 1.2 3.8 1.3 2.4 10.6 7.7 5.4 4.2-4.2 2.5-5.7 10.5-6.5 19.3-1.9 57.4-1.6 77 0 1.9.1 7.6 1.1 8.8 1.9.2.2 2.6 5.3 2.6 5.6v17c0 1.1 2.4 1.4 3.5 1.5 10.2 1.2 22.9-.9 33.4-.2 4.1-15.2-.7-24.5 18.6-25.9 21.5-1.6 55.7-1.3 77.1 1 5.9.6 4 3.1 6.9 5.1 6.3 4.3 4.6-5.5 10-5.1 63.2.8 127-1.5 189.9 1.2 2.3 1.2 6.7 8.9 8.8 4.6 1.3-2.6 1-5.9 5.2-5.8 31.4-.1 62.7.3 94.1 0 18.8-.1 38.1-2.2 57-1.1 6 .4 12.8.5 16.9 5.1 2.4 2.8 5.8 12.4 7.5 13.4s8.8 1.1 11.8 2.2c7.5 2.6 9 8.5 12 15 20.8 70.5 48 140.6 67.7 211.3 1 3.5 3.6 10.5 3.5 13.5 0 4.1-3 4.9-4 7.5-9.8 3.8-14.5.8-11.8 13.3.3 1.2 1.8 1.5 1.8 1.7 1.5 4.2-2.2 9.9-3 13-20.2 9.1-42.9 5.5-64.5 6-30.9.6-62 .7-93 1-11.2.1-22.6 1.9-34 1.1-9.9-.7-12.8-3.2-19.1-10.4-.7-.8-.5-3-1.9-3.6-3.2-1.5-2.4 3-4 5-.4.5-9.1 6.8-9.9 7.1-6.9 2.7-17.6-.6-25 2-61.4-3.7-128.3 4.8-189 0-6.8-.5-11.3-2.1-16.4-6.6-1.6-1.3-2.5-4.2-4.6-5.4l-9.1 8.9c-2 1.2-8.2 2-10.9 2.1-21.8 1.6-61.6 2-83 0-4.2-.4-11.3-2.3-14.5-5-2.2-1.9-4.2-5.9-6.5-8-.7-21.9 1.6-44 2.5-66 0-.1 1-1.1 1-2.4.1-1.6.5-9.6-1.5-9.6h-37c-3.4 0-4.7 11.1-4.5 14-3.8 16.9-2.9 35.1-6 52-.5 2.8-1.6 7.3-2.5 10-6.5 17.9-21.8 13.3-37 14-20.5.9-49.9 3.3-69.9 1-1.6-.2-5.9-1.5-7.2-2.3-2.7-1.5-6.7-9.4-8.8-9.7-3.8-.5-1.9 1.9-3.5 3.6-3.7 4.2-9.9 8.1-15.5 8.5-55.9 4-115.8-4.3-172.1-1-12.8-2-26.6 0-38.5-6Zm98-265c-14.8 45.1-28 91.3-41 137-.6 2.1-1.4 3.9-2 6-.2.6.2 1.4 0 2 0 .2-1.3 1.3-1.8 2.7-.9 3.1-2.4 7.2-2.2 10.3l-25 82c24.3-.9 49.1 2.1 73-2 .9-3.5-3.1-1-4.6-3-1.2-7.7 8.7-2.4 9.6-3 1.4-1 7.7-29.5 8.8-33.8.4-1.8 0-3.9.3-5.2 0-.1 1.4-.6 1.7-1.7 2.6-9.6.8-8.1-8.7-8.3.2-.5-.3-1.7 0-2 1.2-.9 9.9 1.3 11.5-1 2-2.8 2.2-18.6 5.5-20.6.7-.4 13.6-.5 15.5-.5 4.5.1 8.6 2.3 13.4 0l-19 80h77c2.1-10.7 3.1-21.8 5.1-32.4 11-58.1 22.6-116.6 33-175V72c-2.3.1-2.9 1.7-5.5 2.1-8.1 1.1-20.3-.3-28.6-1.1v-8c2.3-.8 7.6-4.3 9.3-6 1.8-1.7 1.6-5.3 4.7-5 2.6 4.2-11.4 11.8-7 14.5l28.1 1.1L283 32H173.5c-2 .3-4.6.4-6.5 1l-37.3-1c-.6.2-4.1 10.3-4.7 12m312 16c-1.9.6-.9 10.9-1 13.5s-1.2 4.9-1 7.5h25v1c-1.6-.6-3.8 1-4.5 1H435c-.2 0 .3 3.7 0 4-.2.2-5.2 1-5.5 1H407l2-28h-26c0-4.8.5-9.7 1.1-14.4.3-2.2 4-13.6.4-13.6h-61c-.4 0-1.1 1.1-1.3 1.7-.6 8.5-3.7 16.7-5.1 24.9-12.4 72.9-22.1 146.5-33.4 219.7-.4 2.9-3.4 5 .8 5.8l74.4-1.2c4-25.9 5-52.2 8.2-78.3.3-2.1 1.7-4.1 1.9-5.6.1-1-.1-2 0-3 1-8.3 1.5-16.8 3-25h-25v-4c1.8-.2 0 1.8 2.4 2.1 3.4.4 6.4-.9 9.1-.9 3 0 12.2 2.7 13.4-.9.4-1.2 0-4.3.1-4.3h15c-2.3 10.8-3.1 22-3 33h57l2-25h-14c-1.6-4.6.1-8.3 0-13h-35.5c-1 0-4.1 3-3.5-1l41-1v13c.5.5 12.2-.2 12.9-1.1.7-.8-.3-4.5.1-4.9.5-.5 11 .4 13 0l-5 120.5 76.1-.5v-44c-4.8-1.7-16.3.4-19.5-3-1.8-1.9-.9-4.8-5.5-5.5-.5-2.5 3.2-1.6 4.4-1.4 6 .9 13.5 4.8 19.6 4.5 2.3-1.7.2-32.8 1-38.1-.2-40.4 0-81.7 0-122.5V47c0-3 .1-6 0-9v-5h-63c-.5.2-.8.5-1 1-.2.6 0 2.1 0 3v3c-.3 3.6-.6 6.9-1 10.5-.2 2.6.6 7.7 0 9.5-6.3 1.2-20.8-1.7-26 0Zm187-28c-19-.2-38 .2-57 0l2 87c4.2 2 30.8 4.9 32 6.1 1.4 1.3-.1 1.9-1.5 2-4.3.4-9.7-2.3-14.1-2.9-5-.7-10.4.3-15.4-1.1l4 157 38.5 4H773l-10.9-71.6c-.9-.6-15-.8-16.5-.3-2.1.8-1.1 3.8-2.2 3.9-3.6.6-11.2-5.4-16.5-3.1v13c4.6-3.6 12.1-.7 16.3-2.2 3.1-1 2.3-6.4 2.7-6.8.2-.2 5.1-.3 5.8.1 1.1.6 4.7 14.3 4.8 16.5.3 6.3-.5 12 .2 19.1.4 4.2-5 4.1-6.4 2.2-.7-.9.7-4.3.5-6.4-.2-1.8-2-9.6-2.7-11.4-3.2-9.9-12.5-7.9-21.2-8.1-2.9 6.8 4.9 31.1-2.1 35.5-1.4.9-4.6-1.2-6.6-1.5s-7.7.3-8.3-.2c-.7-.6-1.7-12.4-2.1-14.9-.3-1.8.2-4.1-1.2-5.8-.5-.4-9.4-2.1-10.8-2.2v-8c4 1.3 8-.3 12-1 2.2 5.3.5 27.3 5 29.5 5.8 2.9 11.7.3 12.7-6.3.7-4.2-1-23.9-1.8-28.7-.5-3.2-3.2-3.1-1.2-8.3.3-.7 4.2-5.3.7-5.3h-41c-4.1 0 2.6 18.4 2.5 21-2.5.4-1.8-.4-2.5-2-1.3-3.2-3.4-16.8-4.5-17.6-2.6-1.8-11.7 1-15-1.4-.2 3.1 0 18.1-1.1 19.9-1 1.6-9.7 1.1-11.9 1.1 0 3.6 4.8 1.9 2 7-1.2-.1-2.7 0-4 0-6.8 0-4.2 1.5-5 2-.5.3-2.7-.7-3.1.5-.3 1.3.1 4.6 0 6.5-.1 4.6 0 9.4 0 14h-3c2.3-10.2.4-21.5 1-32h22c-.2-2.6 2.8-19-.5-19h-14.5l-6-80-14 1c.2-1.2-.4-4.5 0-4.9 1.3-1.4 11.5-.7 13.9 0-1.5-4.4-1.5-8.6-2-13-1-9.4-1.3-18.7-2-28 16.5-.2 33.2 0 49.5 0h45.5c-3.1-5.1-4.2-14.8 3-16 .9-.2 2 .1 3 0-.2.4.4 2.4 0 2.9-.8.7-4.5-.3-4.9.1-.5.4.4 11 0 13h12c.7-.6-3.6-16.7-4-19-1.8-11.6-2.2-23.5-5-35H633.1c-2 0-6.2-1-9.5-1Zm185 190c.2 1.6-.2 3.5.1 5.3 3 19 6.6 38 10.9 56.7h90.5c4.2 0-.9-7.6.5-9 7.1-1.2 2.6 3.2 3.1 7.9 1.4.5 2.9 1 4.4 1.1 13.4 1.3 33.2.5 47 0 7.2-.2 15.1-1.5 22.5-1.5 2.3-2.1-.5-.7-1.2-2.9-2.7-7.7-4-16.2-7.8-23.6h24L947.8 75.7c-1.3-3.2-4.6-.5-7.3-.6-3.7-.2-15.8-1.2-17.2-4.4-3.3-8 .6-7.1 3.1-10.7 8.7-12.4-3.2-6.1-6.3-8.1-.9-.6-4-17.2-5.1-19.9H773c9.2 44.1 15.5 88.8 24.5 133 1.7 6.1 14.5 2.5 15.5-2.5.6-3.1-.4-7.2 0-10.5 5.3 3 3.2 14.4-.6 16.9-2 1.3-4.1.6-5.7 1.1-.9.3-.7 1.7-1.4 1.9-1.9.4-4.3-.2-6.3 0 2.2 14.4 5 28.7 8 43 .1.6-.1 1.4 0 2 0 .4.5.9 1 1 .3 1.6.9 3.2 1 4ZM945 69c-1.1-4.7-2.1-16.4-7.5-17.1-8.5-1-5.2 2.2-6.8 6.3-.8 2-4.8 7.1-2.6 9.6 1.3 1.6 14 1 16.9 1.1Zm-285 58c1.6 19.3 3.2 38.7 5 58 0 .6-.2 1.3 0 1.9.6.4 1.5 0 1.9.1 1.7.6 2.4.9 4.4 1 31.5 2.3 65.8-1.8 97.6 0 1.8 1.1 4 1.4 5.8 2.7s3.2 5.2 5.2 3.8c-2.4-18.3-5-36.6-8.3-54.7-.3-1.9-1.5-3.8-1.7-4.8-.8-4.3-1.2-8.7-2-13-.9-4.9-1.1-10.6-2.3-15.2-1.7-6.6-3.1-.4-5.2 1.2-11.2 9.1-77.6 3.4-95.8 6.2-7.2 1.1-6.2 3.3-5.8 10.3 0 1.3 1 2.2 1 2.4Zm-11 108c-1.5-3.3-6.2-1.7-9-2-.4.3-1 2 1.3 1.7 2.9-.3 4.9.2 7.7.3" style="fill:#0f264d;filter:url(#drop-shadow-1)"/>
  <path class="st2" d="M369 199c-.2 1.4-1.7 3.5-1.9 5.6-3.2 26.1-4.2 52.4-8.2 78.3l-74.4 1.2c-4.1-.8-1.2-2.9-.8-5.8 11.3-73.1 21-146.7 33.4-219.6 1.4-8.2 4.5-16.4 5.1-24.9.2-.6.9-1.7 1.3-1.7h61c3.6 0-.1 11.5-.4 13.6-.6 4.7-1.2 9.6-1.1 14.4h26l-2 28h22.5c.3 0 5.3-.8 5.5-1 .3-.3-.2-4 0-4h20.5c.7 0 2.9-1.6 4.5-1v-1h-25c-.2-2.6 1-4.9 1-7.5s-.9-12.9 1-13.5c-.4 3.5 1.1 1.4 2.8 1.3 6.9-.4 15.4.5 21.8-.3 1-.1 1.1 0 1.5-1 .6-1.8-.2-6.9 0-9.5.4-3.7.7-6.9 1-10.5 3.1.8 1.4-2.2 2.6-3.1 3.8-2.7 12 .2 16 .1 2.4 0 4.6-1.1 6.9-1.1s18.1-.8 18.5 1.6c.3 1.4-5.7 7 1 9.5 3.3 1.2 9 2 12.5 2.1 1.8 0 3.9.6 3.5-2.1.5.3 2.2-.2 3 0v21c-3.4.2-7-.4-10.4 0-1.3.2-3.9.3-3.6 2.4.9 6 10 2.7 14 2.5.1 40.8-.2 82 0 122.5-.8 5.3 1.3 36.4-1 38.1-6.2.3-13.7-3.5-19.6-4.5-1.2-.2-5-1.1-4.4 1.4 4.6.7 3.7 3.6 5.5 5.5 3.2 3.4 14.7 1.3 19.5 3v44l-76 .5 5-120.5c-2 .4-12.6-.5-13 0-.4.4.6 4.1-.1 4.9-.7.9-12.4 1.6-12.9 1.1v-13l-41 1c-.6 4 2.5 1 3.5 1h35.5c.1 4.7-1.6 8.4 0 13h14l-2 25h-57c-.1-11 .7-22.2 3-33h-15c-.2 0 .2 3.2-.1 4.3-1.2 3.6-10.4.9-13.4.9-2.7 0-5.7 1.3-9.1.9-2.4-.3-.6-2.3-2.4-2.1v4h25c-1.5 8.2-2 16.7-3 25-19.1-2.2-17.9 7.2 0 3ZM327 42c.1-2.7 0-5.3 0-8-6.4 3.3-.2 12.2-5 17 4.5 1.3 9.8 1.4 14.5 1 3.1-.2 2.6.5 2.5-3h7l-3 3c5.8-1.3 8.2 1.8 7 7.3-.2.8-1.8.6-2 1.4-.5 2.3.5 7 3.5 7.3 0-2.8-.4-17.3-1.5-18-.1 0-1.5 1.1-1.8.8-.2-.5-.3-1.2-.1-1.8 0 0 1.5-.3 1-1 0 0-1.2.2-1.6-.4-5.1-6.3-6.8-2.8-13.8-3.7-2.2-.3-4.1-2.3-6.6-1.9Zm136 31h25v-5h-17c-.2 0 .6 2.9-.5 3-2.6-1.3-4.3-4.5-7.5-4zm30 0v1h19v-1zm-122 36V88.5c0-1.7 3.5-4.2-2-3.5-1 5.2 0 37-1.1 38.9-.9 1.4-8 1.2-9.9 1.2.5 3.6 11.3 1.6 11.9.9.5-.6.5-14.2 1.1-14.9.4-.4 9.2.3 11 0 1.6-1.2 0-1.8-1.5-2-1.8-.2-9.2.3-9.5 0Zm113-5c5.8-.6 23.9-4.1 27.5-7.9 2.4-2.5 1.8-5.6-1.6-4.6-7.4 6.2-20.1 5.4-25.9 12.6Zm-10 3c-2.1.6-14.1 2.1-14 3.5 0 .7 2.1 1 2.7 1.8s.1 2.5.3 2.7c2.6 2.5 3-2.5 3.2-2.8 1-1.1 7.8-.9 7.8-5.2m-28 13c0-2.4 2-4.7-1.5-5.1-1 0-12.1 1.6-12.5 2.1-.2.3.1 2.2 0 3zm50 32c-2.5-.1-5.1.4-7.6 1-1.7.4-2.9-1-2.4 2 2.6-.3 10.2 1.3 10-3m-157 16c-2.4-.1-1.8-.3-2 1.5-.6 5-3.5 16.2 4 15.5 1.1-2.8-2-1.9-2-2zm5 18-2-2c-.3 2.1-.1 2.3 2 2m-28 17c2.2 2.2 6.2-8.3 6-10-1.8.2-6.4 9.6-6 10m205-3c-.5-8.4-12.9-2.1-18-5 .2 1.1-.7 2.8.7 3 2.5.4 16.6 2.7 17.3 2m-203 33c.2-7.4-14-2.9-18.8-3.8-2.1 4.3-3.1 9-3.2 13.8 1.7.5 2.8-.7 4-1 7.2-1.8 16.4-1.7 24-2 .4-7.1.2-6.7-6-7m174 5c1.3-7.4-10.7-8.1-16-9l7.4 8.1zm315-23c-3-14.2-5.8-28.6-8-43 2-.2 4.4.4 6.3 0 .7-.2.6-1.6 1.4-1.9 1.6-.6 3.7.2 5.7-1.1 3.8-2.6 5.9-13.9.6-16.9-.4 3.3.6 7.4 0 10.5-1 5-13.8 8.6-15.5 2.5-8.9-44.2-15.3-88.9-24.5-133h142c1.1 2.7 4.2 19.3 5.1 19.9 3.1 2 15-4.3 6.3 8.1-2.5 3.6-6.4 2.7-3.1 10.7 1.3 3.2 13.5 4.2 17.2 4.4 2.8.1 6-2.7 7.3.6l55.2 180.3h-24c3.8 7.4 5.2 15.9 7.8 23.6.7 2.1 3.5.8 1.2 2.9-7.4 0-15.3 1.3-22.5 1.5-13.8.5-33.6 1.2-47 0-1.5-.1-3-.6-4.4-1.1-.4-4.7 4-9.1-3.1-7.9-1.4 1.4 3.7 9-.5 9H820c-4.2-18.7-7.9-37.7-10.9-56.7-.3-1.8.1-3.8-.1-5.3 5-.4 13.7 1.7 12-5.3-.6-2.5-11.7-1.5-14-1.7Zm-6-167c3.9-3.7-11.7-2.2-12-2-2.3 1.8 5.9 3.8 6.7 3.8 2.3 0 1.8-2.4 2.4-2.8.4-.3 2.5 1.3 2.9.9Zm62.9 4.1c-5.8-3.6.2 8.7 0 11.3-.2 4.4-3.7 6.8-4.9 10.6 7.7-.9 15.2.3 23 0-.5-5.4-6.3-4.3-9.4-7.1-3.3-2.9-8-14.3-8.7-14.8M934 85l-10-1c.9 6.7 6.2 1.7 10 4zm-50 2h-34c.6 5.2 3 10.8 3.8 15.8.7 4.5-2.5 6 2.4 9.6L879 212h37l-13-54c3.4 2 6.7 0 10.4 0 8.4-.3 16.7.3 25.1 1.1l1.5-2-38.5-.9L884 87.1Zm-39.2 18.2c-1.1-.7-10.9-1.1-9.8 2.8h11c-.4-.7-1-2.7-1.2-2.8M832 167h19l2 11 3-.5c-.9-2.7-1.9-11.9-4.2-13.3-1.3-.7-15.6.5-18.3.8-1.5.2-3 .8-1.5 2m-2 29c-5.2.8-15.5-2.6-17 4 4.2-1.9 6.3 2 6.7 2 2.8.5 7-2.7 10.3 0zm19.7 9.3c-3.6-2.9-13.7 1-18.7-.3v3c3.5-.4 14.4-.8 17 .5 2.4 1.1 4.8 13 7 10.5 1.1-1.3-3.3-12.1-5.3-13.7M919 225c-5.6.6-14.1-2.5-19.3-1.1-.8.2-1.2 2.2-1.7 3l19.3 2.1 1.7-4.1Zm-55.2 3.2c-.5-.8-4.4-1.6-4.8-1.2 0 5.3 0 8.1 6 7 .2-.2-1-5.5-1.2-5.8m58 7c-6-3.9 0 9.8 3.2 6.8.9-.9-2.7-6.4-3.2-6.8M167 33c1.8-.6 4.5-.7 6.5-1H283l-6.9 37.6-28.1-1.1c-4.4-2.8 9.6-10.4 7-14.5-3.2-.3-3 3.3-4.7 5-1.7 1.6-7 5.2-9.3 6-.3 0-3.8 1-4 1-8.4.9-18.4-.7-27 0 0 9.5-5.3 18.4-5 28 4.7-1.5 23.4 2.1 26 .5 1.9-1.1 2.4-6.9 3.1-7.4 1.4-.9 7.7.3 9.9-.1 3.9-3-9.6-1.6-10-2 1.2-3.9 1.5-7.9 2-12 1.6 0 3.4-.2 5 0 8.3.7 20.4 2.2 28.6 1.1 2.6-.4 3.2-1.9 5.4-2.1v3.5c-10.3 58.4-21.9 116.9-32.9 175-2 10.7-3 21.8-5.1 32.4h-77l19-80c-4.9 2.3-8.9 0-13.4 0-2 0-14.9 0-15.5.5-3.3 2-3.5 17.8-5.5 20.6-1.6 2.3-10.3 0-11.5 1-.3.2.1 1.5 0 2-.7 2.1-1.7 8.8 0 10 .4.3 5.2-2.2 7 0-.3 1.3.2 3.4-.3 5.2-1.1 4.3-7.4 32.7-8.8 33.8-.9.6-10.7-4.7-9.6 3 1.5 1.9 5.4-.5 4.6 3-23.9 4.1-48.8 1.1-73 2l25-82c0 1 .8 1.4 1 2 .2.4-.4 1.3.6 2.1 3.8 2.8 11.8 1.7 16.4 1.9l-.5 12c3.6-.9 4.2-12.1 3.5-14.4-.2-.6-2.2-1.2-3-1.6-2.3-1.2-12.3-4.8-12.8-5.2-3.6-3.6 3-7.8-1.2-9.8.2-.6-.2-1.4 0-2 3.4.8 1-3.8 4-5.5l-2-.5c13-45.7 26.2-91.9 41-137l9 4c-1-2.7 2.1-5.8 2.1-7.5 0-.3-4.3-2.1-2.1-4.5 1-1.1 24.3 1 29.8-.8 1.4-.4 2.7-2.1 3.2-2.2m-20 122c2.7-.2 15.2.5 15.9-.1.4-4.9 3-10.2 2.1-14.9h28c-.3 5.5-2.9 10.4-2 16h13c4.1-13.3 4.8-28.1 8.1-41.2.1-.6 3.6-2.2 1.9-5.8-18 1-11.5-.8-10-14h-24.5c-.4 0-1.6-1.2-2.5-1 1.9-4.1 2.8-17 5.2-19.7 2.1-2.4 12.4-.8 15.8-1.3 1.1-5.4-4.1-3.1-6.1-4.4-1.6-1.1-3.4-14.7-1.9-17.5-3.3-3.8-5.4 14.4-6.1 14.9-8.1.5-16.4-.3-24.5 0-1.3 0-2.2 1-2.4 1-2.6.2-13.8-.3-14.9 1.1-4.3 5.2 9.9 6.6 12.9 4.9-.3 1.4.2 3.4-.3 5.2-1.3 5.7-3.6 11.1-4.7 16.8h26c-1.4 3.9.9 15-5 12.5-.3-1.3 3.5-9.6.5-9.5s-2.9 9.3-4.2 10c-6.2 3.5-21.6-1.9-22.3-1-.2.2-.4 2.4.6 3.1 2.1 1.5 10.5 1.9 13.4 1.9-3 14.5-8.4 28.7-12 43-4.1.4-3.4 8.4-4 12l5.5 1c.6-1.9-3-1.9-3.4-3.6-.1-.5 1.5-8 1.8-9.4Zm-7-81c-5.3-5.2-15.5.5-21.5-2l-.5 2zm37 82c-1 .2-3.5-.3-3.9 0s-1.5 8.4-2.1 9.9l2.3-2.2 3.7-7.8Zm-60 23c3.2-1.6 6.9-12.6 4.1-14.6-1-.7-13.5-.7-15.6-.5-1.8.2-4.6.9-2.9 3.1l17.5 1c-.7 3.9-3.9 6.6-3 11Zm55-8-1-4-18 2c-.4 1 2.3 2 2.5 2zm-70 57c-4.3.9-8.3-.5-7 5 5.5.4 6.4.7 7-5m97 46c-1.3-.6-7.9 1.5-7 3.5 1.6 3.6 7.9.1 7-3.5M624 32c-.6 3 1.5 1.9 3.5 2 22.9.8 43.6.8 66.5 3 .1 0 .9.9 2.4 1.1 9.2 1.2 21.1-1 30.6 0-.5 9 5 14.7 5.9 20.6.7 4.4-1.2 8.3 0 12.4-7.2 1.2-6.1 11-3 16h-45.5c-16.2 0-33-.2-49.5 0 0 0-.6-1.3-1.9-.6-3.7 2.1-.3 10.4 0 14.1.3 4.3-.3 8.7 0 13 .2 2.8 2.5 1 4 1.5.5 4.4.5 8.6 2 13-2.4-.6-12.6-1.3-13.9 0-.4.5.1 3.8 0 4.9l14-1 6 80h14.5c3.3 0 .3 16.4.5 19h-22c-.6 10.5 1.3 21.8-1 32-.9 0-2.2-.2-3 0-1.8-1.9-4.7-1.7-6.5-3-1.3-.8-3.2-6.1-5.4-4.1-.5.5 3.4 10.1 9 9-1.8 5.1 5 5.9 8.3 5 2.6-.7.7-5.8.7-7 0-4.6-.1-9.4 0-14 6.6-.4 13.6 1 19.9-1.1-.3-8.5-.5-6-6.3-7-.8-.1-1.4-.9-1.6-.9 2.8-5.1-1.9-3.4-2-7 2.2 0 10.9.4 11.9-1.1 1.1-1.8.9-16.7 1.1-19.9 3.4 2.5 12.5-.4 15 1.4 1.1.8 3.2 14.3 4.5 17.6.7 1.6 0 2.4 2.5 2 .1-2.6-6.6-21-2.5-21h41c3.5 0-.5 4.6-.7 5.3-2 5.2.7 5.1 1.2 8.3.8 4.8 2.4 24.4 1.8 28.7-1 6.6-6.9 9.2-12.7 6.3-4.5-2.2-2.8-24.2-5-29.5-4 .7-8 2.3-12 1v8c-2.9-.2-6 .2-9 0l3 1-3 1c1 1.4.8 4.7 2 5.6 2.2 1.6 15.4-.2 19.1.4.5 2.5 1.4 14.3 2.1 14.9.6.5 6.4 0 8.3.2 2 .2 5.2 2.4 6.6 1.5 7-4.3-.8-28.7 2.1-35.5 8.7.1 18-1.9 21.2 8.1.6 1.9 2.5 9.7 2.7 11.4.2 2.1-1.2 5.5-.5 6.4 1.3 1.9 6.7 2 6.4-2.2-.7-7.1.2-12.9-.2-19.1-.1-2.2-3.7-15.9-4.8-16.5-.7-.4-5.6-.3-5.8-.1-.4.4.3 5.8-2.7 6.8-4.2 1.4-11.8-1.4-16.3 2.2v-13c5.3-2.4 12.9 3.7 16.4 3.1 1.1-.2 0-3.2 2.2-3.9 1.4-.5 15.5-.3 16.5.3l10.9 71.6H613l-38.5-4-4-157c5 1.4 10.4.4 15.4 1.1 4.4.6 9.8 3.4 14.1 2.9 1.4-.1 2.9-.7 1.5-2-1.2-1.1-27.8-4.1-32-6.1l-2-87c19 .2 38-.2 57 0Zm54 15c0 .2 2.6 3.1 3.5 3.1 1.5 0 7.3-1.6 9.5-2.1 1.2-.3 3.4.4 3.9-1.6.1-.5-1-5-1.4-5.4-1.6-2.2-17.6-2.7-15.5 6m-30 19c-5 4-12.9.9-18.5 2-2.5.5-2.7 1.8-2.5 4h-20.6c-1.7 0-4.2-1.1-4.4-1-3.2.9-1.3-2.8-2.5-3.1-.9-.2-15-.2-15.8 0-1.1.3-.8 3.2-1.6 4.1-6.2-1.1-1.8 4.1 3 3.1-.9 4.1 1.2 12.2.7 15.5-.3 2.1-3.8 2.3-5.1 3.4-3.6 2.9-6.1 10.4-5.5 15 3.4.6 2.7-4.8 3.5-7 1.5-4.1 3.5-6.5 8.1-6.9s.7 3.7 4 4.8c4.3 1.5 18.8-.4 24.9.1 2.5.2 12.3 3.4 13.5 2.6 2.4-1.8-1.1-25.2-1-29.6 7.5-.5 15.8 1.2 23-1 1.5 2.7 4.3 2.4 7 3-.3-8.3-7.5-8.5-10.5-16-1-2.5.7-5.5-3.5-3.5 1.3 3.6 2.3 7 4 10.5Zm43 20-1.5-14c-2.8 2.9-1.4 8.2-.5 11.6.4 1.7-1 2.9 2 2.4m-11-13-6 1.5c5.6.3 3.9 1.4 4 6.5 3.8.8 1.3-5.8 2-8m-45 8h-2v3h2zm-25.8 141.8c-2-1.7 0-7.8-8.2-5.8.8 10.9 0 15.2-12 12-1.8 4.6 2.5 6.8 3 9.5 1.1 5.5-2.6 18.3 6 17.5-1.6-6-2.3-25.5 5.5-27 2.3-.4 11.7-.4 13 .9 2.8 2.9 2.7 14 3.5 18.5.3 1.8-1.1 3 2 2.5-1.5-3.9-.7-24.2-2.1-25.9-.6-.7-9.3-1.1-10.7-2.3Z"/>
  <path class="st2" d="M624 32c3.3 0 7.5 1 9.5 1H734c2.8 11.5 3.2 23.4 5 35 .7 2.6-2.9 2.8-3 3-1 .1-2.1-.2-3 0-1.3-4.1.6-8 0-12.4-.9-5.9-6.4-11.6-5.9-20.6 0-.1 1.4-.8 1-2-.7-.7-12.6 1.1-14.5 1.1-5.5 0-11.4-2-17.5-1.1l-1 1h-1c-22.9-2.2-43.6-2.2-66.5-3-1.9 0-4 1-3.5-2Zm-159 1h63v4l-1 .5 1 .5c.1 3 0 6 0 9-.8-.2-2.5.3-3 0-.4-.2-.8-1.6-1.2-1.7-2.2-.8-8.5-.4-11.3-.3-1.9 0-4-1-3.5 2-6.7-2.5-.7-8-1-9.5-.5-2.4-15.4-1.6-18.5-1.6s-4.5 1-6.9 1.1c-3.9 0-12.1-2.8-16-.1-1.2.9.5 3.9-2.6 3.1v-2l1-.5-1-.5c0-.9-.2-2.4 0-3zm60 3h-15c.1.8-.2 2.8 0 3 .5.5 13-.7 15 0zm420 33c-2.8-.1-15.5.5-16.9-1.1-2.1-2.5 1.9-7.6 2.6-9.7 1.6-4.1-1.7-7.3 6.8-6.3 5.4.6 6.4 12.3 7.5 17.1M167 33c-.6.2-1.9 1.8-3.2 2.2-5.5 1.8-28.8-.3-29.8.8-2.2 2.4 2.1 4.2 2.1 4.5 0 1.7-3 4.8-2.1 7.5l-9-4c.6-1.7 4-11.9 4.7-12z"/>
  <path class="st2" d="M739 68c.4 2.3 4.7 18.4 4 19h-12c.4-2-.5-12.6 0-13 .4-.4 4.1.6 4.9-.1.5-.4-.2-2.5 0-2.9.1-.2 3.7-.4 3-3Zm-87 172c.2 0 .8.8 1.6.9 5.8.9 6-1.5 6.3 7-6.3 2.1-13.3.7-19.9 1.1 0-1.8-.4-5.1 0-6.5.3-1.2 2.6-.2 3.1-.5 2.7-.3 5.7 1.2 5-2 1.3 0 2.8-.1 4 0Zm44 0c1.4.1 10.3 1.8 10.8 2.2 1.4 1.7.9 3.9 1.2 5.8-3.6-.7-16.9 1.1-19.1-.4-1.1-.8-.9-4.1-2-5.6l3-1-3-1c3 .2 6.1-.3 9 0ZM82 189c4.2 2-2.3 6.2 1.2 9.8.5.5 10.5 4.1 12.8 5.2H79c-.2-.6-1-1-1-2 0-3.1 1.4-7.2 2.2-10.3.4-1.4 1.7-2.5 1.8-2.7M635 87c.7 9.3 1 18.6 2 28-1.5-.4-3.8 1.4-4-1.5-.3-4.3.3-8.7 0-13-.3-3.7-3.6-12 0-14.1 1.3-.7 1.8.6 1.9.6ZM133 227c9.5.2 11.4-1.3 8.7 8.3-.3 1.2-1.7 1.6-1.7 1.7-1.8-2.2-6.5.3-7 0-1.7-1.2-.7-7.9 0-10m674-12c2.3.2 13.4-.9 14 1.7 1.7 7-7 5-12 5.3-.1-.8-.7-2.4-1-4 0-.5-.5-.9-1-1-.1-.6.1-1.4 0-2M528 68v5c-4.1.2-13.2 3.5-14-2.5-.3-2.1 2.3-2.2 3.6-2.4 3.4-.5 7 0 10.4 0Zm109 195h3c0 1.3 2 6.4-.7 7-3.3.8-10.1 0-8.3-5 .2 0 2.2-1.8 3-2s2.1 0 3 0m-268-67c-.1 1 .1 2 0 3-17.9 4.2-19.1-5.2 0-3M241 65v8c-1.6-.2-3.4 0-5 0 .3-2.3 1.1-4.6 1-7 .2 0 3.7-.9 4-1m222-5c-.3 1-.4.9-1.5 1-6.4.8-14.8-.1-21.8.3-1.7 0-3.2 2.2-2.8-1.3 5.2-1.7 19.7 1.2 26 0Z"/>
  <path class="st3" d="M649 235c-2.8 0-4.8-.6-7.7-.3-2.3.3-1.7-1.4-1.3-1.7 2.8.3 7.5-1.3 9 2m-1 5c.7 3.2-2.3 1.7-5 2 .8-.5-1.8-2 5-2"/>
  <path class="st2" d="m84 181 2 .5c-2.9 1.7-.6 6.3-4 5.5.6-2.1 1.4-3.9 2-6"/>
  <path class="st3" d="M665 185c2.1-.2 2.2-.1 2 2-.4-.1-1.3.3-1.9-.1-.3-.6 0-1.3 0-1.9Zm143 33c-.5-.1-.9-.6-1-1 .5.1.9.5 1 1M464 34c.2-.5.5-.8 1-1z"/>
  <path class="st2" d="m528 38-1-.5 1-.5z"/>
  <path class="st3" d="M464 38v-1l1 .5z"/>
  <path class="st2" d="M318 233c6.2.3 6.4-.1 6 7-7.6.3-16.8.2-24 2-1.9-9 11.8-9.4 18-9"/>
  <path class="st0" d="M371 109c.3.3 7.8-.2 9.5 0 1.5.2 3.1.8 1.5 2-1.8.3-10.6-.4-11 0-.6.7-.6 14.3-1.1 14.9-.6.7-11.4 2.7-11.9-.9 1.9 0 9 .2 9.9-1.2 1.1-1.8.1-33.7 1.1-38.9 5.5-.7 2 1.8 2 3.5v20.5Zm-53 124c-6.2-.4-19.9 0-18 9-1.2.3-2.3 1.5-4 1 0-4.8 1.1-9.6 3.2-13.8 4.8.9 19-3.6 18.8 3.8"/>
  <path class="st2" d="M463 73v-6c3.2-.5 4.9 2.7 7.5 4 1.1-.1.3-3 .5-3h17v5z"/>
  <path class="st0" d="M484 104c5.9-7.2 18.5-6.3 25.9-12.6 3.4-1 4 2.1 1.6 4.6-3.6 3.8-21.8 7.3-27.5 7.9Z"/>
  <path class="st2" d="M327 42c2.5-.3 4.3 1.7 6.6 1.9 7.1.9 8.7-2.5 13.8 3.7.4.5 1.5.3 1.6.4.5.7-1 .9-1 1h-9c-4.8.2-7.9.8-13-1 0-2.1.9-3.9 1-6"/>
  <path class="st0" d="M327 42c0 2-1 3.9-1 6 5.1 1.8 8.2 1.2 13 1 .1 3.5.6 2.8-2.5 3-4.7.4-10 .2-14.5-1 4.8-4.8-1.4-13.7 5-17 0 2.7.1 5.3 0 8m165 196-8.6-.9-7.4-8.1c5.3.9 17.3 1.6 16 9"/>
  <path class="st2" d="M521 200c-.8.7-14.9-1.6-17.3-2-1.4-.2-.5-1.9-.7-3 5.1 2.9 17.5-3.4 18 5m-75-80h-14c.1-.8-.2-2.7 0-3 .4-.5 11.5-2.2 12.5-2.1 3.5.4 1.5 2.7 1.5 5.1"/>
  <path class="st0" d="M509 47c-.6-3 1.5-1.9 3.5-2 2.8-.1 9.1-.5 11.3.3.5.2.8 1.5 1.2 1.7.4 2.7-1.7 2.1-3.5 2.1-3.5-.1-9.2-.9-12.5-2.1m-35 60c0 4.3-6.8 4.1-7.8 5.2-.2.2-.5 5.2-3.2 2.8-.2-.2.4-1.9-.3-2.7s-2.7-1.2-2.7-1.8c-.1-1.4 11.9-2.9 14-3.5M348 49c-.1.6 0 1.3.1 1.8.3.3 1.7-.9 1.8-.8 1.1.7 1.6 15.2 1.5 18-3-.4-4-5.1-3.5-7.3.2-.8 1.9-.6 2-1.4 1.1-5.5-1.2-8.7-7-7.3l3-3h2Zm-9 119v15c0 .1 3.1-.8 2 2-7.4.7-4.6-10.5-4-15.5.2-1.8-.4-1.6 2-1.5m157-16c.2 4.3-7.4 2.7-10 3-.5-3 .8-1.6 2.4-2 2.4-.6 5-1.1 7.6-1m-180 51c-.4-.4 4.2-9.8 6-10 .3 1.7-3.8 12.2-6 10M493 73h19v1h-19zM344 186c-2.1.3-2.3.1-2-2zm540-99 17.5 69.1 38.5.9-1.5 2c-8.3-.8-16.7-1.4-25.1-1.1-3.8.1-7 2-10.4 0l13 54h-37l-22.8-99.6c-4.9-3.6-1.8-5.1-2.4-9.6-.7-5.1-3.2-10.6-3.8-15.8h34Zm-20.1-34.9c.7.5 5.4 11.8 8.7 14.8 3.1 2.8 9 1.7 9.4 7.1-7.8.3-15.3-.9-23 0 1.2-3.8 4.7-6.1 4.9-10.6.1-2.6-5.8-14.9 0-11.3m-14.2 153.2c2 1.6 6.4 12.4 5.3 13.7-2.2 2.5-4.6-9.4-7-10.5-2.6-1.2-13.5-.9-17-.5v-3c5 1.3 15.1-2.6 18.7.3"/>
  <path class="st2" d="M830 196v6c-3.3-2.7-7.6.6-10.3 0-.4 0-2.4-3.9-6.7-2 1.5-6.6 11.8-3.2 17-4"/>
  <path class="st0" d="M832 167c-1.6-1.2 0-1.8 1.5-2 2.7-.3 17-1.5 18.3-.8 2.4 1.4 3.3 10.5 4.2 13.3l-3 .5-2-11zm87 58-1.7 4.1L898 227c.5-.9.9-2.8 1.7-3 5.2-1.4 13.8 1.6 19.3 1.1ZM801 48c-.4.4-2.5-1.2-2.9-.9-.5.4 0 2.8-2.4 2.8-.9 0-9.1-2.1-6.7-3.8.3-.2 15.9-1.8 12 2Zm62.8 180.2c.2.3 1.4 5.6 1.2 5.8-6 1.1-6.1-1.7-6-7 .3-.4 4.2.5 4.8 1.2"/>
  <path class="st2" d="M844.8 105.2c.1 0 .8 2.2 1.2 2.8h-11c-1.1-3.9 8.7-3.6 9.8-2.8"/>
  <path class="st0" d="M934 85v3c-3.8-2.3-9.1 2.7-10-4zm-12.2 150.2c.5.3 4.1 5.9 3.2 6.8-3.1 3-9.2-10.6-3.2-6.8M157 67c.2 0 1.1-1 2.4-1 8.1-.4 16.4.5 24.5 0 .6-.6 2.8-18.7 6.1-14.9-1.4 2.8.3 16.4 1.9 17.6 1.9 1.3 7.1-1 6.1 4.4-3.4.5-13.7-1.1-15.8 1.3-2.4 2.7-3.3 15.6-5.2 19.7.9-.2 2.1 1 2.5 1H204c-1.5 13.2-8 15 10 14 1.6 3.6-1.8 5.2-1.9 5.8-3.3 13.2-4 28-8.1 41.2h-13c-.9-5.5 1.8-10.5 2-15.9h-28c.9 4.7-1.6 10-2.1 14.9-.7.6-13.2-.1-15.9.1-.4 1.4-1.9 8.9-1.8 9.4.4 1.6 4 1.6 3.4 3.6l-5.5-1c.6-3.6 0-11.6 4-12 3.6-14.3 9-28.5 12-43-2.9 0-11.3-.4-13.4-1.9-.9-.7-.8-2.9-.6-3.1.7-.9 16.1 4.5 22.3 1 1.2-.7 1.3-9.9 4.2-10s-.8 8.2-.5 9.5c5.9 2.5 3.6-8.5 5-12.5h-26c1.1-5.7 3.4-11.1 4.7-16.8.4-1.8 0-3.8.3-5.2s2.2-3.9 2-6Z"/>
  <path class="st0" d="M237 66c0 2.4-.7 4.7-1 7-.5 4.1-.8 8.1-2 12 .4.4 13.9-1 10 2-2.2.5-8.5-.7-9.9.1-.7.5-1.3 6.2-3.1 7.4-2.6 1.6-21.3-2-26-.5-.3-9.6 5-18.5 5-28 8.6-.7 18.6.9 27 0M96 204c.8.4 2.9 1.1 3 1.6.6 2.3 0 13.5-3.5 14.4l.5-12c-4.5-.2-12.6.8-16.4-1.9-1.1-.8-.4-1.6-.6-2.1zm21-25c-1-4.4 2.3-7.1 3-11l-17.5-1c-1.7-2.1 1.1-2.9 2.9-3.1 2.2-.2 14.6-.2 15.6.5 2.8 2-.8 12.9-4.1 14.6Z"/>
  <path class="st2" d="M157 67c.2 2.1-1.7 4.6-2 6-3.1 1.7-17.2.2-12.9-4.9 1.2-1.4 12.3-.9 14.9-1.1"/>
  <path class="st0" d="M172 171h-16.5c-.2 0-2.9-1-2.5-2l18-2zm-32-97h-22l.5-2c6 2.5 16.2-3.3 21.5 2m-38 154c-.6 5.7-1.5 5.4-7 5-1.3-5.4 2.7-4.1 7-5m75-72-3.7 7.8-2.3 2.2c.6-1.5 1.7-9.6 2.1-9.9.4-.4 2.9.1 3.9 0Zm22 118c1 3.6-5.4 7-7 3.5-.9-2 5.7-4.1 7-3.5M627 72l1 1c-.1 4.4 3.5 27.8 1 29.6-1.2.9-11-2.3-13.5-2.6-6-.6-20.5 1.3-24.9-.1-3.3-1.1.7-5.2-4-4.8s-6.6 2.9-8.1 6.9c-.8 2.2 0 7.6-3.5 7-.6-4.6 1.9-12.1 5.5-15 1.3-1.1 4.8-1.4 5.1-3.4.5-3.2-1.6-11.4-.7-15.5-4.8 1.1-9.2-4.2-3-3.1 3.5.6 5.2.8 9 1-1.5 5-1.1 10.4-1 15.6 0 1.4 1 2.9 1 3.4 0 1.1-1.8 4.1-1 6 6.4-.3 13.1.5 19.5 0 3-.2 6.2-1.5 9.5-2 1.9-.3 4.5.5 6.4-.1 3.8-1.2.5-17.9.7-21.9-8.2-.3-16.4.4-24.6 0-1.3 0-2.3-1-2.4-1 1.7.5 2.8-2 3-2s2.8 1.1 4.4 1zm-17.8 150.8c1.4 1.2 10.1 1.6 10.7 2.3 1.4 1.7.6 22 2.1 25.9-3 .5-1.6-.8-2-2.5-.8-4.5-.7-15.6-3.5-18.5-1.4-1.4-10.7-1.4-13-.9-7.8 1.5-7.2 21-5.5 27-8.6.8-4.9-12-6-17.5-.5-2.7-4.7-4.9-3-9.5 11.9 3.2 12.8-1.1 12-12 8.3-2.1 6.2 4.1 8.2 5.8Z"/>
  <path class="st2" d="M651 72c-7.2 2.2-15.5.5-23 1l-1-1c-.2-2.2 0-3.5 2.5-4 5.6-1.1 13.5 2 18.5-2 .8 1.7 2.2 4.5 3 6m40-24c-1-6.2-8.9-1.9-13-1-2.1-8.7 13.9-8.2 15.5-6 .3.5 1.5 5 1.4 5.4-.5 2-2.6 1.3-3.9 1.6M582 72c.8-.9.5-3.8 1.6-4.1.8-.2 14.9-.2 15.8 0 1.3.3-.7 4 2.5 3.1-.2 0-1.3 2.5-3 2-2.7 0-5.3.1-8 0-3.8-.2-5.5-.4-9-1Z"/>
  <path class="st0" d="M648 66c-1.7-3.5-2.7-6.9-4-10.5 4.1-2 2.4 1 3.5 3.5 3 7.5 10.2 7.7 10.5 16-2.7-.6-5.5-.3-7-3-.8-1.5-2.2-4.3-3-6m48-30c6.1-.9 12 1 17.5 1.1 1.9 0 13.8-1.7 14.5-1.1.5 1.2-1 1.9-1 2-9.5-1-21.4 1.3-30.6 0-1.5-.2-2.3-1-2.4-1.1h1c.4-.2.8-1 1-1Zm-65 229c-5.6 1.1-9.5-8.5-9-9 2.2-2 4.2 3.2 5.4 4 1.9 1.2 4.8 1.1 6.5 3-.8.2-2.8 2-3 2Zm60-217c-2.2.5-8 2.1-9.5 2.1-.9 0-3.4-2.9-3.5-3.1 4.1-.9 12-5.2 13 1m0 38c-3 .5-1.6-.8-2-2.4-.9-3.4-2.3-8.7.5-11.6zm-11-13c-.6 2.2 1.8 8.8-2 8-.1-5.1 1.6-6.2-4-6.5z"/>
  <path class="st2" d="M633 81h2v3h-2z"/>
  <path class="st3" d="m695 37 1-1c-.2 0-.6.8-1 1"/>
  <path class="st2" d="M525 36v3c-2-.7-14.5.5-15 0-.2-.2.1-2.2 0-3zm74 37c.1 0 1.1 1 2.4 1 8.2.3 16.4-.3 24.6 0-.2 3.9 3.2 20.6-.7 21.9-1.9.6-4.4-.1-6.4.1-.2-2.2-1.3-3.6-3.5-4-6.9-1.3-17.2.9-24.5 0 0-.6-1-2-1-3.4 0-5.2-.5-10.6 1-15.6 2.7.1 5.3 0 8 0Z"/>
  <path class="st2" d="M619 96c-3.3.5-6.5 1.8-9.5 2-6.4.5-13.1-.3-19.5 0-.8-1.9 1-4.9 1-6 7.3.9 17.6-1.3 24.5 0 2.3.4 3.3 1.7 3.5 4"/>
</svg>
